Martel Devanagari-DemiBold.ufo
<glyph name="quotedbl" format="1">
  <advance width="615"/>
  <unicode hex="0022"/>
  <outline>
    <contour>
      <point x="384" y="472" type="line"/>
      <point x="446" y="472" type="line"/>
      <point x="470" y="870" type="line"/>
      <point x="360" y="870" type="line"/>
    </contour>
    <contour>
      <point x="169" y="472" type="line"/>
      <point x="231" y="472" type="line"/>
      <point x="255" y="870" type="line"/>
      <point x="145" y="870" type="line"/>
    </contour>
  </outline>
</glyph>
<glyph name="parenleft" format="1">
  <advance width="397"/>
  <unicode hex="0028"/>
  <outline>
    <contour>
      <point x="341" y="-126" type="line"/>
      <point x="293" y="-91"/>
      <point x="136" y="87"/>
      <point x="146" y="378" type="curve" smooth="yes"/>
      <point x="154" y="641"/>
      <point x="294" y="796"/>
      <point x="334" y="823" type="curve"/>
      <point x="292" y="849" type="line"/>
      <point x="246" y="823"/>
      <point x="56" y="638"/>
      <point x="56" y="354" type="curve" smooth="yes"/>
      <point x="56" y="28"/>
      <point x="246" y="-128"/>
      <point x="292" y="-156" type="curve"/>
    </contour>
  </outline>
</glyph>
<glyph name="two" format="1">
  <advance width="596"/>
  <unicode hex="0032"/>
  <outline>
    <contour>
      <point x="78" y="0" type="line"/>
      <point x="519" y="0" type="line"/>
      <point x="551" y="134" type="line"/>
      <point x="509" y="148" type="line"/>
      <point x="462" y="79" type="line"/>
      <point x="183" y="58" type="line"/>
      <point x="355" y="161"/>
      <point x="486" y="313"/>
      <point x="486" y="448" type="curve" smooth="yes"/>
      <point x="486" y="533"/>
      <point x="426" y="617"/>
      <point x="292" y="617" type="curve" smooth="yes"/>
      <point x="194" y="617"/>
      <point x="103" y="563"/>
      <point x="66" y="518" type="curve"/>
      <point x="89" y="480" type="line"/>
      <point x="122" y="509"/>
      <point x="192" y="552"/>
      <point x="259" y="552" type="curve" smooth="yes"/>
      <point x="354" y="552"/>
      <point x="388" y="479"/>
      <point x="388" y="416" type="curve" smooth="yes"/>
      <point x="388" y="291"/>
      <point x="234" y="146"/>
      <point x="64" y="39" type="curve"/>
    </contour>
  </outline>
</glyph>
<glyph name="three" format="1">
  <advance width="524"/>
  <unicode hex="0033"/>
  <outline>
    <contour>
      <point x="61" y="-102" type="curve"/>
      <point x="61" y="-120"/>
      <point x="61" y="-137"/>
      <point x="61" y="-155" type="curve"/>
      <point x="304" y="-196"/>
      <point x="471" y="-45"/>
      <point x="471" y="104" type="curve" smooth="yes"/>
      <point x="471" y="197"/>
      <point x="404" y="273"/>
      <point x="265" y="268" type="curve"/>
      <point x="347" y="292"/>
      <point x="429" y="382"/>
      <point x="429" y="460" type="curve" smooth="yes"/>
      <point x="429" y="575"/>
      <point x="335" y="620"/>
      <point x="244" y="620" type="curve" smooth="yes"/>
      <point x="138" y="620"/>
      <point x="62" y="573"/>
      <point x="32" y="542" type="curve"/>
      <point x="58" y="499" type="line"/>
      <point x="94" y="527"/>
      <point x="139" y="554"/>
      <point x="212" y="554" type="curve" smooth="yes"/>
      <point x="275" y="554"/>
      <point x="331" y="521"/>
      <point x="329" y="431" type="curve" smooth="yes"/>
      <point x="328" y="357"/>
      <point x="235" y="302"/>
      <point x="127" y="281" type="curve"/>
      <point x="127" y="216" type="line"/>
      <point x="202" y="232" type="line"/>
      <point x="329" y="232"/>
      <point x="370" y="178"/>
      <point x="370" y="85" type="curve" smooth="yes"/>
      <point x="370" y="-36"/>
      <point x="227" y="-131"/>
    </contour>
  </outline>
</glyph>
<glyph name="six" format="1">
  <advance width="611"/>
  <unicode hex="0036"/>
  <outline>
    <contour>
      <point x="62" y="275" type="curve" smooth="yes"/>
      <point x="62" y="121"/>
      <point x="154" y="-10"/>
      <point x="309" y="-10" type="curve" smooth="yes"/>
      <point x="468" y="-10"/>
      <point x="558" y="133"/>
      <point x="558" y="259" type="curve" smooth="yes"/>
      <point x="558" y="362"/>
      <point x="497" y="473"/>
      <point x="372" y="473" type="curve" smooth="yes"/>
      <point x="310" y="473"/>
      <point x="243" y="442"/>
      <point x="227" y="418" type="curve"/>
      <point x="249" y="380" type="line"/>
      <point x="270" y="396"/>
      <point x="292" y="409"/>
      <point x="347" y="409" type="curve" smooth="yes"/>
      <point x="415" y="409"/>
      <point x="467" y="343"/>
      <point x="467" y="219" type="curve" smooth="yes"/>
      <point x="467" y="137"/>
      <point x="424" y="41"/>
      <point x="325" y="41" type="curve" smooth="yes"/>
      <point x="188" y="41"/>
      <point x="157" y="181"/>
      <point x="163" y="326" type="curve" smooth="yes"/>
      <point x="168" y="474"/>
      <point x="290" y="639"/>
      <point x="502" y="708" type="curve"/>
      <point x="482" y="749" type="line"/>
      <point x="285" y="712"/>
      <point x="62" y="526"/>
    </contour>
  </outline>
</glyph>
<glyph name="nine" format="1">
  <advance width="615"/>
  <unicode hex="0039"/>
  <outline>
    <contour>
      <point x="134" y="-198" type="line"/>
      <point x="332" y="-161"/>
      <point x="547" y="61"/>
      <point x="547" y="327" type="curve" smooth="yes"/>
      <point x="547" y="479"/>
      <point x="464" y="612"/>
      <point x="309" y="612" type="curve" smooth="yes"/>
      <point x="150" y="612"/>
      <point x="60" y="469"/>
      <point x="60" y="343" type="curve" smooth="yes"/>
      <point x="60" y="240"/>
      <point x="121" y="129"/>
      <point x="246" y="129" type="curve" smooth="yes"/>
      <point x="308" y="129"/>
      <point x="366" y="155"/>
      <point x="391" y="184" type="curve"/>
      <point x="369" y="222" type="line"/>
      <point x="353" y="208"/>
      <point x="313" y="193"/>
      <point x="271" y="193" type="curve" smooth="yes"/>
      <point x="203" y="193"/>
      <point x="150" y="259"/>
      <point x="150" y="383" type="curve" smooth="yes"/>
      <point x="150" y="465"/>
      <point x="193" y="562"/>
      <point x="292" y="562" type="curve" smooth="yes"/>
      <point x="429" y="562"/>
      <point x="453" y="421"/>
      <point x="447" y="276" type="curve" smooth="yes"/>
      <point x="441" y="119"/>
      <point x="328" y="-87"/>
      <point x="116" y="-156" type="curve"/>
    </contour>
  </outline>
</glyph>
<glyph name="semicolon" format="1">
  <advance width="345"/>
  <unicode hex="003B"/>
  <outline>
    <contour>
      <point x="167" y="385" type="curve" smooth="yes"/>
      <point x="203" y="385"/>
      <point x="240" y="413"/>
      <point x="240" y="456" type="curve" smooth="yes"/>
      <point x="240" y="489"/>
      <point x="221" y="516"/>
      <point x="178" y="516" type="curve" smooth="yes"/>
      <point x="143" y="516"/>
      <point x="105" y="486"/>
      <point x="105" y="445" type="curve" smooth="yes"/>
      <point x="105" y="407"/>
      <point x="135" y="385"/>
    </contour>
    <contour>
      <point x="115" y="43" type="line"/>
      <point x="152" y="40"/>
      <point x="185" y="-10"/>
      <point x="185" y="-59" type="curve" smooth="yes"/>
      <point x="185" y="-121"/>
      <point x="144" y="-186"/>
      <point x="97" y="-201" type="curve"/>
      <point x="97" y="-214" type="line"/>
      <point x="120" y="-243" type="line"/>
      <point x="196" y="-212"/>
      <point x="275" y="-132"/>
      <point x="275" y="-21" type="curve" smooth="yes"/>
      <point x="275" y="32"/>
      <point x="247" y="117"/>
      <point x="169" y="136" type="curve"/>
      <point x="115" y="65" type="line"/>
    </contour>
  </outline>
</glyph>
<glyph name="less" format="1">
  <advance width="647"/>
  <unicode hex="003C"/>
  <outline>
    <contour>
      <point x="63" y="334" type="line"/>
      <point x="536" y="93" type="line"/>
      <point x="536" y="183" type="line"/>
      <point x="146" y="367" type="line"/>
      <point x="536" y="552" type="line"/>
      <point x="536" y="641" type="line"/>
      <point x="63" y="399" type="line"/>
    </contour>
  </outline>
</glyph>
<glyph name="question" format="1">
  <advance width="494"/>
  <unicode hex="003F"/>
  <outline>
    <contour>
      <point x="282" y="239" type="line"/>
      <point x="259" y="299"/>
      <point x="227" y="356"/>
      <point x="235" y="410" type="curve"/>
      <point x="254" y="471"/>
      <point x="451" y="506"/>
      <point x="451" y="578" type="curve"/>
      <point x="469" y="705"/>
      <point x="400" y="896"/>
      <point x="156" y="896" type="curve" smooth="yes"/>
      <point x="117" y="896"/>
      <point x="74" y="887"/>
      <point x="63" y="874" type="curve"/>
      <point x="63" y="799" type="line"/>
      <point x="82" y="807"/>
      <point x="119" y="810"/>
      <point x="144" y="810" type="curve" smooth="yes"/>
      <point x="271" y="810"/>
      <point x="387" y="699"/>
      <point x="379" y="571" type="curve"/>
      <point x="364" y="523"/>
      <point x="137" y="487"/>
      <point x="141" y="405" type="curve" smooth="yes"/>
      <point x="145" y="351"/>
      <point x="199" y="263"/>
      <point x="230" y="239" type="curve"/>
    </contour>
    <contour>
      <point x="198" y="49" type="curve" smooth="yes"/>
      <point x="198" y="12"/>
      <point x="228" y="-11"/>
      <point x="260" y="-11" type="curve" smooth="yes"/>
      <point x="296" y="-11"/>
      <point x="333" y="17"/>
      <point x="333" y="60" type="curve" smooth="yes"/>
      <point x="333" y="93"/>
      <point x="314" y="121"/>
      <point x="271" y="121" type="curve" smooth="yes"/>
      <point x="236" y="121"/>
      <point x="198" y="90"/>
    </contour>
  </outline>
</glyph>
<glyph name="B" format="1">
  <advance width="693"/>
  <unicode hex="0042"/>
  <outline>
    <contour>
      <point x="52" y="0" type="line"/>
      <point x="176" y="0" type="line"/>
      <point x="210" y="-2"/>
      <point x="275" y="-7"/>
      <point x="331" y="-7" type="curve" smooth="yes"/>
      <point x="545" y="-7"/>
      <point x="647" y="91"/>
      <point x="647" y="223" type="curve" smooth="yes"/>
      <point x="647" y="333"/>
      <point x="562" y="406"/>
      <point x="455" y="408" type="curve"/>
      <point x="553" y="430"/>
      <point x="598" y="504"/>
      <point x="598" y="594" type="curve" smooth="yes"/>
      <point x="598" y="699"/>
      <point x="514" y="764"/>
      <point x="357" y="765" type="curve" smooth="yes"/>
      <point x="278" y="766"/>
      <point x="220" y="760"/>
      <point x="177" y="758" type="curve" smooth="yes"/>
      <point x="54" y="758" type="line"/>
      <point x="54" y="710" type="line"/>
      <point x="134" y="702" type="line"/>
      <point x="134" y="56" type="line"/>
      <point x="52" y="42" type="line"/>
    </contour>
    <contour>
      <point x="230" y="706" type="line"/>
      <point x="252" y="715"/>
      <point x="313" y="713"/>
      <point x="337" y="713" type="curve" smooth="yes"/>
      <point x="435" y="713"/>
      <point x="508" y="667"/>
      <point x="508" y="576" type="curve" smooth="yes"/>
      <point x="508" y="477"/>
      <point x="446" y="426"/>
      <point x="347" y="426" type="curve" smooth="yes"/>
      <point x="314" y="426"/>
      <point x="262" y="423"/>
      <point x="229" y="429" type="curve"/>
    </contour>
    <contour>
      <point x="229" y="364" type="line"/>
      <point x="265" y="368"/>
      <point x="316" y="366"/>
      <point x="362" y="366" type="curve" smooth="yes"/>
      <point x="484" y="366"/>
      <point x="546" y="317"/>
      <point x="546" y="204" type="curve" smooth="yes"/>
      <point x="546" y="88"/>
      <point x="460" y="47"/>
      <point x="353" y="47" type="curve" smooth="yes"/>
      <point x="312" y="47"/>
      <point x="247" y="55"/>
      <point x="229" y="66" type="curve"/>
    </contour>
  </outline>
</glyph>
<glyph name="C" format="1">
  <advance width="688"/>
  <unicode hex="0043"/>
  <outline>
    <contour>
      <point x="42" y="354" type="curve" smooth="yes"/>
      <point x="42" y="137"/>
      <point x="189" y="-14"/>
      <point x="391" y="-14" type="curve" smooth="yes"/>
      <point x="530" y="-14"/>
      <point x="593" y="28"/>
      <point x="640" y="31" type="curve"/>
      <point x="640" y="171" type="line"/>
      <point x="625" y="171"/>
      <point x="613" y="171"/>
      <point x="598" y="171" type="curve"/>
      <point x="570" y="96" type="line"/>
      <point x="541" y="59"/>
      <point x="492" y="38"/>
      <point x="414" y="38" type="curve" smooth="yes"/>
      <point x="235" y="38"/>
      <point x="142" y="199"/>
      <point x="142" y="384" type="curve" smooth="yes"/>
      <point x="142" y="591"/>
      <point x="266" y="708"/>
      <point x="405" y="708" type="curve" smooth="yes"/>
      <point x="473" y="708"/>
      <point x="512" y="698"/>
      <point x="554" y="670" type="curve"/>
      <point x="580" y="589" type="line"/>
      <point x="631" y="589" type="line"/>
      <point x="639" y="730" type="line"/>
      <point x="597" y="740"/>
      <point x="529" y="765"/>
      <point x="436" y="765" type="curve" smooth="yes"/>
      <point x="227" y="765"/>
      <point x="42" y="605"/>
    </contour>
  </outline>
</glyph>
<glyph name="G" format="1">
  <advance width="750"/>
  <unicode hex="0047"/>
  <outline>
    <contour>
      <point x="42" y="354" type="curve" smooth="yes"/>
      <point x="42" y="142"/>
      <point x="180" y="-14"/>
      <point x="381" y="-14" type="curve" smooth="yes"/>
      <point x="500" y="-14"/>
      <point x="618" y="37"/>
      <point x="661" y="40" type="curve"/>
      <point x="661" y="289" type="line"/>
      <point x="721" y="298" type="line"/>
      <point x="721" y="346" type="line"/>
      <point x="447" y="346" type="line"/>
      <point x="447" y="298" type="line"/>
      <point x="565" y="290" type="line"/>
      <point x="565" y="89" type="line"/>
      <point x="527" y="47"/>
      <point x="460" y="38"/>
      <point x="404" y="38" type="curve" smooth="yes"/>
      <point x="226" y="38"/>
      <point x="142" y="207"/>
      <point x="142" y="384" type="curve" smooth="yes"/>
      <point x="142" y="587"/>
      <point x="264" y="706"/>
      <point x="403" y="708" type="curve" smooth="yes"/>
      <point x="507" y="710"/>
      <point x="563" y="687"/>
      <point x="573" y="674" type="curve"/>
      <point x="598" y="592" type="line"/>
      <point x="650" y="592" type="line"/>
      <point x="658" y="734" type="line"/>
      <point x="624" y="742"/>
      <point x="556" y="765"/>
      <point x="434" y="765" type="curve" smooth="yes"/>
      <point x="221" y="765"/>
      <point x="42" y="605"/>
    </contour>
  </outline>
</glyph>
<glyph name="M" format="1">
  <advance width="965"/>
  <unicode hex="004D"/>
  <outline>
    <contour>
      <point x="38" y="0" type="line"/>
      <point x="291" y="0" type="line"/>
      <point x="291" y="42" type="line"/>
      <point x="198" y="56" type="line"/>
      <point x="222" y="520" type="line"/>
      <point x="226" y="687" type="line"/>
      <point x="244" y="633"/>
      <point x="261" y="580"/>
      <point x="280" y="527" type="curve" smooth="yes"/>
      <point x="467" y="-7" type="line"/>
      <point x="500" y="-7" type="line"/>
      <point x="706" y="602" type="line"/>
      <point x="726" y="682" type="line"/>
      <point x="730" y="513" type="line"/>
      <point x="771" y="56" type="line"/>
      <point x="690" y="42" type="line"/>
      <point x="690" y="0" type="line"/>
      <point x="944" y="0" type="line"/>
      <point x="944" y="42" type="line"/>
      <point x="860" y="56" type="line"/>
      <point x="805" y="697" type="line"/>
      <point x="896" y="705" type="line"/>
      <point x="896" y="758" type="line"/>
      <point x="689" y="758" type="line"/>
      <point x="521" y="228" type="line"/>
      <point x="499" y="154" type="line"/>
      <point x="476" y="226" type="line"/>
      <point x="300" y="758" type="line"/>
      <point x="75" y="758" type="line"/>
      <point x="75" y="705" type="line"/>
      <point x="170" y="697" type="line"/>
      <point x="122" y="56" type="line"/>
      <point x="38" y="42" type="line"/>
    </contour>
  </outline>
</glyph>
<glyph name="N" format="1">
  <advance width="812"/>
  <unicode hex="004E"/>
  <outline>
    <contour>
      <point x="51" y="0" type="line"/>
      <point x="299" y="0" type="line"/>
      <point x="299" y="42" type="line"/>
      <point x="204" y="56" type="line"/>
      <point x="204" y="644" type="line"/>
      <point x="271" y="508" type="line"/>
      <point x="593" y="0" type="line"/>
      <point x="693" y="0" type="line"/>
      <point x="693" y="697" type="line"/>
      <point x="774" y="706" type="line"/>
      <point x="774" y="758" type="line"/>
      <point x="543" y="758" type="line"/>
      <point x="543" y="706" type="line"/>
      <point x="623" y="697" type="line"/>
      <point x="623" y="90" type="line"/>
      <point x="554" y="224" type="line"/>
      <point x="227" y="758" type="line"/>
      <point x="54" y="758" type="line"/>
      <point x="54" y="705" type="line"/>
      <point x="134" y="697" type="line"/>
      <point x="134" y="56" type="line"/>
      <point x="51" y="42" type="line"/>
    </contour>
  </outline>
</glyph>
<glyph name="O" format="1">
  <advance width="759"/>
  <unicode hex="004F"/>
  <outline>
    <contour>
      <point x="44" y="367" type="curve" smooth="yes"/>
      <point x="40" y="146"/>
      <point x="172" y="-18"/>
      <point x="378" y="-14" type="curve" smooth="yes"/>
      <point x="564" y="-10"/>
      <point x="712" y="136"/>
      <point x="718" y="385" type="curve" smooth="yes"/>
      <point x="722" y="606"/>
      <point x="596" y="771"/>
      <point x="393" y="765" type="curve" smooth="yes"/>
      <point x="204" y="760"/>
      <point x="49" y="616"/>
    </contour>
    <contour>
      <point x="386" y="38" type="curve" smooth="yes"/>
      <point x="236" y="38"/>
      <point x="149" y="198"/>
      <point x="149" y="368" type="curve" smooth="yes"/>
      <point x="149" y="585"/>
      <point x="241" y="713"/>
      <point x="384" y="713" type="curve" smooth="yes"/>
      <point x="533" y="713"/>
      <point x="612" y="554"/>
      <point x="612" y="384" type="curve" smooth="yes"/>
      <point x="612" y="167"/>
      <point x="529" y="38"/>
    </contour>
  </outline>
</glyph>
<glyph name="V" format="1">
  <advance width="696"/>
  <unicode hex="0056"/>
  <outline>
    <contour>
      <point x="324" y="-10" type="line"/>
      <point x="397" y="-10" type="line"/>
      <point x="634" y="703" type="line"/>
      <point x="693" y="710" type="line"/>
      <point x="693" y="758" type="line"/>
      <point x="471" y="758" type="line"/>
      <point x="471" y="710" type="line"/>
      <point x="551" y="702" type="line"/>
      <point x="405" y="203" type="line"/>
      <point x="376" y="95" type="line"/>
      <point x="342" y="202" type="line"/>
      <point x="177" y="702" type="line"/>
      <point x="265" y="710" type="line"/>
      <point x="265" y="758" type="line"/>
      <point x="2" y="758" type="line"/>
      <point x="2" y="710" type="line"/>
      <point x="67" y="703" type="line"/>
    </contour>
  </outline>
</glyph>
<glyph name="X" format="1">
  <advance width="693"/>
  <unicode hex="0058"/>
  <outline>
    <contour>
      <point x="7" y="0" type="line"/>
      <point x="275" y="0" type="line"/>
      <point x="275" y="42" type="line"/>
      <point x="182" y="56" type="line"/>
      <point x="335" y="333" type="line"/>
      <point x="506" y="56" type="line"/>
      <point x="415" y="42" type="line"/>
      <point x="415" y="0" type="line"/>
      <point x="696" y="0" type="line"/>
      <point x="696" y="42" type="line"/>
      <point x="615" y="56" type="line"/>
      <point x="400" y="400" type="line"/>
      <point x="604" y="703" type="line"/>
      <point x="674" y="710" type="line"/>
      <point x="674" y="758" type="line"/>
      <point x="441" y="758" type="line"/>
      <point x="441" y="710" type="line"/>
      <point x="516" y="702" type="line"/>
      <point x="365" y="439" type="line"/>
      <point x="212" y="702" type="line"/>
      <point x="299" y="710" type="line"/>
      <point x="299" y="758" type="line"/>
      <point x="25" y="758" type="line"/>
      <point x="25" y="710" type="line"/>
      <point x="98" y="702" type="line"/>
      <point x="303" y="381" type="line"/>
      <point x="94" y="56" type="line"/>
      <point x="7" y="42" type="line"/>
    </contour>
  </outline>
</glyph>
<glyph name="backslash" format="1">
  <advance width="398"/>
  <unicode hex="005C"/>
  <outline>
    <contour>
      <point x="384" y="-177" type="line"/>
      <point x="104" y="781" type="line"/>
      <point x="15" y="781" type="line"/>
      <point x="294" y="-177" type="line"/>
    </contour>
  </outline>
</glyph>
<glyph name="grave" format="1">
  <advance width="432"/>
  <unicode hex="0060"/>
  <outline>
    <contour>
      <point x="323" y="681" type="line"/>
      <point x="180" y="869" type="line"/>
      <point x="108" y="796" type="line"/>
      <point x="147" y="736"/>
      <point x="244" y="679"/>
      <point x="297" y="654" type="curve"/>
    </contour>
  </outline>
</glyph>
<glyph name="h" format="1">
  <advance width="686"/>
  <unicode hex="0068"/>
  <outline>
    <contour>
      <point x="61" y="0" type="line"/>
      <point x="299" y="0" type="line"/>
      <point x="299" y="42" type="line"/>
      <point x="228" y="52" type="line"/>
      <point x="228" y="444" type="line"/>
      <point x="273" y="476"/>
      <point x="327" y="485"/>
      <point x="370" y="485" type="curve" smooth="yes"/>
      <point x="478" y="485"/>
      <point x="485" y="406"/>
      <point x="485" y="255" type="curve" smooth="yes"/>
      <point x="485" y="52" type="line"/>
      <point x="403" y="42" type="line"/>
      <point x="403" y="0" type="line"/>
      <point x="652" y="0" type="line"/>
      <point x="652" y="42" type="line"/>
      <point x="579" y="52" type="line"/>
      <point x="579" y="296" type="line" smooth="yes"/>
      <point x="580" y="478"/>
      <point x="548" y="556"/>
      <point x="416" y="556" type="curve" smooth="yes"/>
      <point x="364" y="556"/>
      <point x="282" y="528"/>
      <point x="225" y="482" type="curve"/>
      <point x="227" y="566" type="line"/>
      <point x="228" y="782" type="line"/>
      <point x="205" y="793" type="line"/>
      <point x="50" y="773" type="line"/>
      <point x="50" y="730" type="line"/>
      <point x="134" y="713" type="line"/>
      <point x="134" y="52" type="line"/>
      <point x="61" y="42" type="line"/>
    </contour>
  </outline>
</glyph>
<glyph name="u" format="1">
  <advance width="631"/>
  <unicode hex="0075"/>
  <outline>
    <contour>
      <point x="104" y="225" type="line" smooth="yes"/>
      <point x="106" y="90"/>
      <point x="112" y="-10"/>
      <point x="266" y="-10" type="curve" smooth="yes"/>
      <point x="325" y="-10"/>
      <point x="390" y="16"/>
      <point x="446" y="65" type="curve"/>
      <point x="446" y="25" type="line" smooth="yes"/>
      <point x="446" y="-4"/>
      <point x="465" y="-17"/>
      <point x="497" y="-17" type="curve" smooth="yes"/>
      <point x="527" y="-17"/>
      <point x="569" y="-6"/>
      <point x="588" y="4" type="curve"/>
      <point x="588" y="42" type="line"/>
      <point x="529" y="42" type="line"/>
      <point x="529" y="548" type="line"/>
      <point x="516" y="556" type="line"/>
      <point x="376" y="528" type="line"/>
      <point x="376" y="488" type="line"/>
      <point x="437" y="473" type="line"/>
      <point x="437" y="112" type="line"/>
      <point x="420" y="94"/>
      <point x="360" y="57"/>
      <point x="302" y="57" type="curve" smooth="yes"/>
      <point x="216" y="57"/>
      <point x="197" y="104"/>
      <point x="197" y="211" type="curve" smooth="yes"/>
      <point x="197" y="547" type="line"/>
      <point x="180" y="556" type="line"/>
      <point x="54" y="529" type="line"/>
      <point x="54" y="492" type="line"/>
      <point x="104" y="477" type="line"/>
    </contour>
  </outline>
</glyph>
<glyph name="braceleft" format="1">
  <advance width="505"/>
  <unicode hex="007B"/>
  <outline>
    <contour>
      <point x="161" y="29" type="line" smooth="yes"/>
      <point x="161" y="-67"/>
      <point x="178" y="-93"/>
      <point x="254" y="-93" type="curve" smooth="yes"/>
      <point x="307" y="-93"/>
      <point x="342" y="-83"/>
      <point x="383" y="-72" type="curve"/>
      <point x="383" y="-58"/>
      <point x="383" y="-43"/>
      <point x="383" y="-29" type="curve"/>
      <point x="241" y="-29" type="line"/>
      <point x="241" y="281" type="line" smooth="yes"/>
      <point x="241" y="302"/>
      <point x="230" y="319"/>
      <point x="214" y="333" type="curve" smooth="yes"/>
      <point x="193" y="352"/>
      <point x="164" y="365"/>
      <point x="133" y="379" type="curve"/>
      <point x="159" y="391"/>
      <point x="184" y="401"/>
      <point x="204" y="415" type="curve" smooth="yes"/>
      <point x="226" y="430"/>
      <point x="241" y="447"/>
      <point x="241" y="474" type="curve" smooth="yes"/>
      <point x="241" y="785" type="line"/>
      <point x="383" y="785" type="line"/>
      <point x="383" y="799"/>
      <point x="383" y="813"/>
      <point x="383" y="827" type="curve"/>
      <point x="342" y="837"/>
      <point x="307" y="848"/>
      <point x="254" y="848" type="curve" smooth="yes"/>
      <point x="178" y="848"/>
      <point x="161" y="822"/>
      <point x="161" y="726" type="curve" smooth="yes"/>
      <point x="161" y="472" type="line" smooth="yes"/>
      <point x="161" y="445"/>
      <point x="94" y="423"/>
      <point x="39" y="410" type="curve"/>
      <point x="39" y="349" type="line"/>
      <point x="95" y="335"/>
      <point x="161" y="309"/>
      <point x="161" y="283" type="curve" smooth="yes"/>
    </contour>
  </outline>
</glyph>
<glyph name="section" format="1">
  <advance width="648"/>
  <unicode hex="00A7"/>
  <outline>
    <contour>
      <point x="83" y="68" type="line"/>
      <point x="83" y="-89" type="line"/>
      <point x="111" y="-106"/>
      <point x="208" y="-130"/>
      <point x="306" y="-130" type="curve" smooth="yes"/>
      <point x="440" y="-130"/>
      <point x="558" y="-77"/>
      <point x="558" y="66" type="curve" smooth="yes"/>
      <point x="558" y="107"/>
      <point x="543" y="139"/>
      <point x="520" y="167" type="curve"/>
      <point x="548" y="203"/>
      <point x="565" y="265"/>
      <point x="565" y="320" type="curve" smooth="yes"/>
      <point x="565" y="528"/>
      <point x="189" y="518"/>
      <point x="189" y="682" type="curve" smooth="yes"/>
      <point x="189" y="781"/>
      <point x="280" y="816"/>
      <point x="333" y="816" type="curve" smooth="yes"/>
      <point x="382" y="816"/>
      <point x="433" y="806"/>
      <point x="449" y="787" type="curve"/>
      <point x="487" y="693" type="line"/>
      <point x="529" y="693" type="line"/>
      <point x="529" y="828" type="line"/>
      <point x="500" y="845"/>
      <point x="434" y="866"/>
      <point x="338" y="866" type="curve" smooth="yes"/>
      <point x="241" y="866"/>
      <point x="100" y="803"/>
      <point x="100" y="663" type="curve" smooth="yes"/>
      <point x="100" y="618"/>
      <point x="116" y="584"/>
      <point x="144" y="555" type="curve"/>
      <point x="113" y="521"/>
      <point x="92" y="461"/>
      <point x="92" y="410" type="curve" smooth="yes"/>
      <point x="92" y="201"/>
      <point x="467" y="210"/>
      <point x="467" y="37" type="curve" smooth="yes"/>
      <point x="467" y="-50"/>
      <point x="386" y="-79"/>
      <point x="319" y="-79" type="curve" smooth="yes"/>
      <point x="261" y="-79"/>
      <point x="201" y="-76"/>
      <point x="157" y="-26" type="curve"/>
      <point x="125" y="68" type="line"/>
    </contour>
    <contour>
      <point x="182" y="429" type="curve" smooth="yes"/>
      <point x="182" y="456"/>
      <point x="189" y="486"/>
      <point x="200" y="510" type="curve"/>
      <point x="311" y="439"/>
      <point x="474" y="404"/>
      <point x="474" y="291" type="curve" smooth="yes"/>
      <point x="474" y="268"/>
      <point x="469" y="239"/>
      <point x="460" y="216" type="curve"/>
      <point x="349" y="287"/>
      <point x="182" y="319"/>
    </contour>
  </outline>
</glyph>
<glyph name="copyright" format="1">
  <advance width="997"/>
  <unicode hex="00A9"/>
  <outline>
    <contour>
      <point x="499" y="107" type="curve" smooth="yes"/>
      <point x="723" y="107"/>
      <point x="910" y="298"/>
      <point x="910" y="522" type="curve" smooth="yes"/>
      <point x="910" y="748"/>
      <point x="723" y="938"/>
      <point x="499" y="938" type="curve" smooth="yes"/>
      <point x="273" y="938"/>
      <point x="87" y="748"/>
      <point x="87" y="522" type="curve" smooth="yes"/>
      <point x="87" y="298"/>
      <point x="273" y="107"/>
    </contour>
    <contour>
      <point x="499" y="166" type="curve" smooth="yes"/>
      <point x="305" y="166"/>
      <point x="150" y="330"/>
      <point x="150" y="522" type="curve" smooth="yes"/>
      <point x="150" y="716"/>
      <point x="305" y="879"/>
      <point x="499" y="879" type="curve" smooth="yes"/>
      <point x="691" y="879"/>
      <point x="846" y="716"/>
      <point x="846" y="522" type="curve" smooth="yes"/>
      <point x="846" y="330"/>
      <point x="691" y="166"/>
    </contour>
    <contour>
      <point x="503" y="285" type="curve" smooth="yes"/>
      <point x="572" y="285"/>
      <point x="633" y="313"/>
      <point x="661" y="345" type="curve"/>
      <point x="647" y="380" type="line"/>
      <point x="632" y="366"/>
      <point x="579" y="352"/>
      <point x="538" y="352" type="curve" smooth="yes"/>
      <point x="445" y="352"/>
      <point x="375" y="428"/>
      <point x="375" y="538" type="curve" smooth="yes"/>
      <point x="375" y="641"/>
      <point x="417" y="715"/>
      <point x="494" y="715" type="curve" smooth="yes"/>
      <point x="548" y="715"/>
      <point x="561" y="708"/>
      <point x="576" y="699" type="curve"/>
      <point x="600" y="637" type="line"/>
      <point x="656" y="637" type="line"/>
      <point x="656" y="740" type="line"/>
      <point x="631" y="770"/>
      <point x="539" y="771"/>
      <point x="503" y="768" type="curve" smooth="yes"/>
      <point x="401" y="760"/>
      <point x="285" y="655"/>
      <point x="285" y="518" type="curve" smooth="yes"/>
      <point x="285" y="383"/>
      <point x="359" y="285"/>
    </contour>
  </outline>
</glyph>
<glyph name="macron" format="1">
  <advance width="432"/>
  <unicode hex="00AF"/>
  <outline>
    <contour>
      <point x="95" y="705" type="line"/>
      <point x="354" y="705" type="line"/>
      <point x="354" y="777" type="line"/>
      <point x="95" y="777" type="line"/>
    </contour>
  </outline>
</glyph>
<glyph name="cedilla" format="1">
  <advance width="300"/>
  <unicode hex="00B8"/>
  <outline>
    <contour>
      <point x="106" y="0" type="line"/>
      <point x="95" y="-40"/>
      <point x="89" y="-72"/>
      <point x="89" y="-104" type="curve"/>
      <point x="91" y="-104"/>
      <point x="105" y="-102"/>
      <point x="113" y="-102" type="curve" smooth="yes"/>
      <point x="166" y="-102"/>
      <point x="189" y="-122"/>
      <point x="189" y="-151" type="curve" smooth="yes"/>
      <point x="189" y="-200"/>
      <point x="157" y="-205"/>
      <point x="121" y="-205" type="curve" smooth="yes"/>
      <point x="109" y="-205"/>
      <point x="81" y="-202"/>
      <point x="66" y="-198" type="curve"/>
      <point x="66" y="-215"/>
      <point x="65" y="-230"/>
      <point x="65" y="-247" type="curve"/>
      <point x="85" y="-252"/>
      <point x="104" y="-260"/>
      <point x="162" y="-257" type="curve" smooth="yes"/>
      <point x="233" y="-253"/>
      <point x="285" y="-218"/>
      <point x="285" y="-153" type="curve" smooth="yes"/>
      <point x="285" y="-111"/>
      <point x="250" y="-61"/>
      <point x="161" y="-61" type="curve"/>
      <point x="159" y="-41"/>
      <point x="160" y="-16"/>
      <point x="163" y="0" type="curve"/>
    </contour>
  </outline>
</glyph>
<glyph name="onesuperior" format="1">
  <advance width="530"/>
  <unicode hex="00B9"/>
  <outline>
    <contour>
      <point x="105" y="351" type="line"/>
      <point x="458" y="351" type="line"/>
      <point x="458" y="393" type="line"/>
      <point x="332" y="405" type="line"/>
      <point x="333" y="834" type="line"/>
      <point x="308" y="842" type="line"/>
      <point x="285" y="823"/>
      <point x="154" y="765"/>
      <point x="95" y="747" type="curve"/>
      <point x="105" y="699" type="line"/>
      <point x="238" y="725" type="line"/>
      <point x="238" y="406" type="line"/>
      <point x="105" y="393" type="line"/>
    </contour>
  </outline>
</glyph>
<glyph name="ordmasculine" format="1">
  <advance width="487"/>
  <unicode hex="00BA"/>
  <outline>
    <contour>
      <point x="240" y="359" type="curve" smooth="yes"/>
      <point x="327" y="359"/>
      <point x="442" y="417"/>
      <point x="444" y="564" type="curve" smooth="yes"/>
      <point x="445" y="695"/>
      <point x="371" y="778"/>
      <point x="250" y="778" type="curve" smooth="yes"/>
      <point x="159" y="778"/>
      <point x="48" y="718"/>
      <point x="45" y="569" type="curve" smooth="yes"/>
      <point x="43" y="434"/>
      <point x="130" y="359"/>
    </contour>
    <contour>
      <point x="238" y="409" type="curve" smooth="yes"/>
      <point x="186" y="409"/>
      <point x="141" y="473"/>
      <point x="141" y="574" type="curve" smooth="yes"/>
      <point x="141" y="683"/>
      <point x="180" y="726"/>
      <point x="245" y="728" type="curve" smooth="yes"/>
      <point x="309" y="729"/>
      <point x="348" y="659"/>
      <point x="348" y="559" type="curve" smooth="yes"/>
      <point x="348" y="436"/>
      <point x="308" y="409"/>
    </contour>
  </outline>
</glyph>
<glyph name="onequarter" format="1">
  <advance width="1282"/>
  <unicode hex="00BC"/>
  <outline>
    <contour>
      <point x="389" y="-146" type="line"/>
      <point x="453" y="-167" type="line"/>
      <point x="831" y="897" type="line"/>
      <point x="767" y="918" type="line"/>
    </contour>
    <contour>
      <point x="120" y="351" type="line"/>
      <point x="473" y="351" type="line"/>
      <point x="473" y="393" type="line"/>
      <point x="347" y="405" type="line"/>
      <point x="348" y="834" type="line"/>
      <point x="323" y="842" type="line"/>
      <point x="300" y="823"/>
      <point x="169" y="765"/>
      <point x="110" y="747" type="curve"/>
      <point x="120" y="699" type="line"/>
      <point x="252" y="725" type="line"/>
      <point x="252" y="406" type="line"/>
      <point x="120" y="393" type="line"/>
    </contour>
    <contour>
      <point x="688" y="138" type="line"/>
      <point x="714" y="92" type="line"/>
      <point x="970" y="92" type="line"/>
      <point x="969" y="-86" type="line"/>
      <point x="1057" y="-86" type="line"/>
      <point x="1057" y="92" type="line"/>
      <point x="1192" y="92" type="line"/>
      <point x="1190" y="175" type="line"/>
      <point x="1057" y="165" type="line"/>
      <point x="1057" y="291" type="line"/>
      <point x="971" y="281" type="line"/>
      <point x="970" y="158" type="line"/>
      <point x="771" y="142" type="line"/>
      <point x="806" y="189" type="line"/>
      <point x="1056" y="494" type="line"/>
      <point x="1002" y="544" type="line"/>
      <point x="969" y="543" type="line"/>
    </contour>
  </outline>
</glyph>
<glyph name="AE" format="1">
  <advance width="947"/>
  <unicode hex="00C6"/>
  <outline>
    <contour>
      <point x="1" y="0" type="line"/>
      <point x="234" y="0" type="line"/>
      <point x="234" y="42" type="line"/>
      <point x="152" y="56" type="line"/>
      <point x="214" y="223" type="line"/>
      <point x="510" y="223" type="line"/>
      <point x="561" y="56" type="line"/>
      <point x="481" y="42" type="line"/>
      <point x="481" y="0" type="line"/>
      <point x="895" y="0" type="line"/>
      <point x="917" y="142" type="line"/>
      <point x="874" y="163" type="line"/>
      <point x="825" y="62" type="line"/>
      <point x="668" y="54" type="line"/>
      <point x="574" y="370" type="line"/>
      <point x="747" y="368" type="line"/>
      <point x="761" y="298" type="line"/>
      <point x="806" y="298" type="line"/>
      <point x="806" y="503" type="line"/>
      <point x="761" y="503" type="line"/>
      <point x="747" y="427" type="line"/>
      <point x="558" y="424" type="line"/>
      <point x="474" y="707" type="line"/>
      <point x="772" y="701" type="line"/>
      <point x="794" y="618" type="line"/>
      <point x="843" y="619" type="line"/>
      <point x="829" y="758" type="line"/>
      <point x="355" y="758" type="line"/>
      <point x="70" y="56" type="line"/>
      <point x="1" y="42" type="line"/>
    </contour>
    <contour>
      <point x="236" y="280" type="line"/>
      <point x="383" y="672" type="line"/>
      <point x="400" y="579" type="line"/>
      <point x="492" y="280" type="line"/>
    </contour>
  </outline>
</glyph>
<glyph name="Ccedilla" format="1">
  <advance width="688"/>
  <unicode hex="00C7"/>
  <outline>
    <contour>
      <point x="42" y="354" type="curve" smooth="yes"/>
      <point x="42" y="149"/>
      <point x="172" y="4"/>
      <point x="356" y="-12" type="curve"/>
      <point x="347" y="-46"/>
      <point x="343" y="-75"/>
      <point x="342" y="-104" type="curve"/>
      <point x="344" y="-104"/>
      <point x="359" y="-102"/>
      <point x="366" y="-102" type="curve" smooth="yes"/>
      <point x="419" y="-102"/>
      <point x="443" y="-122"/>
      <point x="443" y="-151" type="curve" smooth="yes"/>
      <point x="443" y="-200"/>
      <point x="411" y="-205"/>
      <point x="375" y="-205" type="curve" smooth="yes"/>
      <point x="363" y="-205"/>
      <point x="334" y="-202"/>
      <point x="319" y="-198" type="curve"/>
      <point x="319" y="-215"/>
      <point x="319" y="-230"/>
      <point x="319" y="-247" type="curve"/>
      <point x="339" y="-252"/>
      <point x="358" y="-260"/>
      <point x="415" y="-257" type="curve" smooth="yes"/>
      <point x="486" y="-253"/>
      <point x="539" y="-218"/>
      <point x="539" y="-153" type="curve" smooth="yes"/>
      <point x="539" y="-111"/>
      <point x="504" y="-61"/>
      <point x="414" y="-61" type="curve"/>
      <point x="413" y="-46"/>
      <point x="413" y="-28"/>
      <point x="414" y="-13" type="curve"/>
      <point x="538" y="-9"/>
      <point x="596" y="28"/>
      <point x="640" y="31" type="curve"/>
      <point x="640" y="171" type="line"/>
      <point x="625" y="171"/>
      <point x="613" y="171"/>
      <point x="598" y="171" type="curve"/>
      <point x="570" y="96" type="line"/>
      <point x="541" y="59"/>
      <point x="492" y="38"/>
      <point x="414" y="38" type="curve" smooth="yes"/>
      <point x="235" y="38"/>
      <point x="142" y="199"/>
      <point x="142" y="384" type="curve" smooth="yes"/>
      <point x="142" y="591"/>
      <point x="266" y="708"/>
      <point x="405" y="708" type="curve" smooth="yes"/>
      <point x="473" y="708"/>
      <point x="512" y="698"/>
      <point x="554" y="670" type="curve"/>
      <point x="580" y="589" type="line"/>
      <point x="631" y="589" type="line"/>
      <point x="639" y="730" type="line"/>
      <point x="597" y="740"/>
      <point x="529" y="765"/>
      <point x="436" y="765" type="curve" smooth="yes"/>
      <point x="227" y="765"/>
      <point x="42" y="605"/>
    </contour>
  </outline>
</glyph>
<glyph name="Egrave" format="1">
  <advance width="644"/>
  <unicode hex="00C8"/>
  <outline>
    <contour>
      <point x="386" y="811" type="line"/>
      <point x="237" y="938" type="line"/>
      <point x="166" y="865" type="line"/>
      <point x="227" y="826"/>
      <point x="299" y="795"/>
      <point x="360" y="785" type="curve"/>
    </contour>
    <contour>
      <point x="50" y="0" type="line"/>
      <point x="591" y="0" type="line"/>
      <point x="613" y="151" type="line"/>
      <point x="566" y="163" type="line"/>
      <point x="517" y="62" type="line"/>
      <point x="227" y="53" type="line"/>
      <point x="227" y="370" type="line"/>
      <point x="409" y="367" type="line"/>
      <point x="423" y="292" type="line"/>
      <point x="473" y="292" type="line"/>
      <point x="473" y="502" type="line"/>
      <point x="423" y="502" type="line"/>
      <point x="409" y="426" type="line"/>
      <point x="227" y="422" type="line"/>
      <point x="227" y="707" type="line"/>
      <point x="497" y="701" type="line"/>
      <point x="519" y="619" type="line"/>
      <point x="573" y="619" type="line"/>
      <point x="559" y="758" type="line"/>
      <point x="52" y="758" type="line"/>
      <point x="52" y="710" type="line"/>
      <point x="132" y="702" type="line"/>
      <point x="132" y="56" type="line"/>
      <point x="50" y="42" type="line"/>
    </contour>
  </outline>
</glyph>
<glyph name="multiply" format="1">
  <advance width="606"/>
  <unicode hex="00D7"/>
  <outline>
    <contour>
      <point x="144" y="168" type="line"/>
      <point x="303" y="339" type="line"/>
      <point x="461" y="168" type="line"/>
      <point x="519" y="229" type="line"/>
      <point x="352" y="388" type="line"/>
      <point x="519" y="548" type="line"/>
      <point x="461" y="608" type="line"/>
      <point x="303" y="437" type="line"/>
      <point x="144" y="608" type="line"/>
      <point x="87" y="548" type="line"/>
      <point x="254" y="388" type="line"/>
      <point x="87" y="229" type="line"/>
    </contour>
  </outline>
</glyph>
<glyph name="Udieresis" format="1">
  <advance width="770"/>
  <unicode hex="00DC"/>
  <outline>
    <contour>
      <point x="508" y="806" type="curve" smooth="yes"/>
      <point x="545" y="806"/>
      <point x="582" y="834"/>
      <point x="582" y="877" type="curve" smooth="yes"/>
      <point x="582" y="910"/>
      <point x="563" y="938"/>
      <point x="520" y="938" type="curve" smooth="yes"/>
      <point x="485" y="938"/>
      <point x="447" y="907"/>
      <point x="447" y="866" type="curve" smooth="yes"/>
      <point x="447" y="829"/>
      <point x="477" y="806"/>
    </contour>
    <contour>
      <point x="281" y="806" type="curve" smooth="yes"/>
      <point x="317" y="806"/>
      <point x="354" y="834"/>
      <point x="354" y="877" type="curve" smooth="yes"/>
      <point x="354" y="910"/>
      <point x="335" y="938"/>
      <point x="292" y="938" type="curve" smooth="yes"/>
      <point x="257" y="938"/>
      <point x="219" y="907"/>
      <point x="219" y="866" type="curve" smooth="yes"/>
      <point x="219" y="829"/>
      <point x="249" y="806"/>
    </contour>
    <contour>
      <point x="93" y="323" type="curve" smooth="yes"/>
      <point x="93" y="103"/>
      <point x="172" y="-14"/>
      <point x="394" y="-14" type="curve" smooth="yes"/>
      <point x="561" y="-14"/>
      <point x="677" y="91"/>
      <point x="677" y="335" type="curve" smooth="yes"/>
      <point x="677" y="701" type="line"/>
      <point x="754" y="710" type="line"/>
      <point x="754" y="758" type="line"/>
      <point x="515" y="758" type="line"/>
      <point x="515" y="710" type="line"/>
      <point x="604" y="701" type="line"/>
      <point x="604" y="335" type="line" smooth="yes"/>
      <point x="604" y="150"/>
      <point x="546" y="37"/>
      <point x="410" y="37" type="curve" smooth="yes"/>
      <point x="283" y="37"/>
      <point x="189" y="100"/>
      <point x="189" y="320" type="curve" smooth="yes"/>
      <point x="189" y="701" type="line"/>
      <point x="276" y="710" type="line"/>
      <point x="276" y="758" type="line"/>
      <point x="16" y="758" type="line"/>
      <point x="16" y="710" type="line"/>
      <point x="94" y="702" type="line"/>
      <point x="94" y="575"/>
      <point x="93" y="450"/>
    </contour>
  </outline>
</glyph>
<glyph name="Thorn" format="1">
  <advance width="633"/>
  <unicode hex="00DE"/>
  <outline>
    <contour>
      <point x="42" y="0" type="line"/>
      <point x="360" y="0" type="line"/>
      <point x="360" y="42" type="line"/>
      <point x="229" y="56" type="line"/>
      <point x="229" y="161" type="line"/>
      <point x="250" y="160"/>
      <point x="279" y="160"/>
      <point x="328" y="159" type="curve" smooth="yes"/>
      <point x="471" y="155"/>
      <point x="611" y="243"/>
      <point x="611" y="402" type="curve" smooth="yes"/>
      <point x="611" y="543"/>
      <point x="506" y="612"/>
      <point x="356" y="612" type="curve" smooth="yes"/>
      <point x="313" y="612"/>
      <point x="267" y="605"/>
      <point x="229" y="601" type="curve"/>
      <point x="229" y="702" type="line"/>
      <point x="314" y="710" type="line"/>
      <point x="314" y="758" type="line"/>
      <point x="49" y="758" type="line"/>
      <point x="49" y="710" type="line"/>
      <point x="134" y="702" type="line"/>
      <point x="134" y="56" type="line"/>
      <point x="42" y="42" type="line"/>
    </contour>
    <contour>
      <point x="229" y="544" type="line"/>
      <point x="259" y="551"/>
      <point x="287" y="557"/>
      <point x="319" y="558" type="curve" smooth="yes"/>
      <point x="444" y="563"/>
      <point x="514" y="500"/>
      <point x="514" y="400" type="curve" smooth="yes"/>
      <point x="514" y="245"/>
      <point x="420" y="208"/>
      <point x="327" y="208" type="curve" smooth="yes"/>
      <point x="297" y="208"/>
      <point x="267" y="208"/>
      <point x="229" y="214" type="curve"/>
    </contour>
  </outline>
</glyph>
<glyph name="atilde" format="1">
  <advance width="559"/>
  <unicode hex="00E3"/>
  <outline>
    <contour>
      <point x="118" y="692" type="line"/>
      <point x="138" y="712"/>
      <point x="170" y="738"/>
      <point x="208" y="738" type="curve" smooth="yes"/>
      <point x="256" y="738"/>
      <point x="271" y="672"/>
      <point x="335" y="672" type="curve" smooth="yes"/>
      <point x="387" y="672"/>
      <point x="445" y="712"/>
      <point x="470" y="758" type="curve"/>
      <point x="445" y="793" type="line"/>
      <point x="424" y="773"/>
      <point x="392" y="747"/>
      <point x="354" y="747" type="curve" smooth="yes"/>
      <point x="307" y="747"/>
      <point x="291" y="813"/>
      <point x="228" y="813" type="curve" smooth="yes"/>
      <point x="176" y="813"/>
      <point x="117" y="772"/>
      <point x="92" y="728" type="curve"/>
    </contour>
    <contour>
      <point x="58" y="157" type="curve" smooth="yes"/>
      <point x="47" y="66"/>
      <point x="114" y="-12"/>
      <point x="215" y="-12" type="curve" smooth="yes"/>
      <point x="297" y="-12"/>
      <point x="348" y="16"/>
      <point x="378" y="53" type="curve"/>
      <point x="378" y="39" type="line" smooth="yes"/>
      <point x="378" y="-9"/>
      <point x="412" y="-12"/>
      <point x="436" y="-12" type="curve" smooth="yes"/>
      <point x="469" y="-12"/>
      <point x="505" y="-3"/>
      <point x="528" y="9" type="curve"/>
      <point x="528" y="42" type="line"/>
      <point x="466" y="42" type="line"/>
      <point x="467" y="377" type="line" smooth="yes"/>
      <point x="467" y="519"/>
      <point x="378" y="556"/>
      <point x="275" y="556" type="curve" smooth="yes"/>
      <point x="226" y="556"/>
      <point x="127" y="538"/>
      <point x="79" y="498" type="curve"/>
      <point x="97" y="454" type="line"/>
      <point x="142" y="476"/>
      <point x="201" y="491"/>
      <point x="239" y="491" type="curve" smooth="yes"/>
      <point x="314" y="491"/>
      <point x="373" y="470"/>
      <point x="373" y="367" type="curve" smooth="yes"/>
      <point x="373" y="325" type="line"/>
      <point x="282" y="325"/>
      <point x="71" y="293"/>
    </contour>
    <contour>
      <point x="152" y="155" type="curve" smooth="yes"/>
      <point x="152" y="250"/>
      <point x="290" y="274"/>
      <point x="373" y="274" type="curve"/>
      <point x="372" y="213"/>
      <point x="372" y="153"/>
      <point x="372" y="92" type="curve"/>
      <point x="352" y="72"/>
      <point x="306" y="50"/>
      <point x="268" y="50" type="curve" smooth="yes"/>
      <point x="195" y="50"/>
      <point x="152" y="79"/>
    </contour>
  </outline>
</glyph>
<glyph name="aring" format="1">
  <advance width="559"/>
  <unicode hex="00E5"/>
  <outline>
    <contour>
      <point x="271" y="645" type="curve" smooth="yes"/>
      <point x="339" y="645"/>
      <point x="395" y="697"/>
      <point x="395" y="762" type="curve" smooth="yes"/>
      <point x="395" y="827"/>
      <point x="339" y="880"/>
      <point x="271" y="880" type="curve" smooth="yes"/>
      <point x="204" y="880"/>
      <point x="148" y="827"/>
      <point x="148" y="762" type="curve" smooth="yes"/>
      <point x="148" y="697"/>
      <point x="204" y="645"/>
    </contour>
    <contour>
      <point x="271" y="696" type="curve" smooth="yes"/>
      <point x="236" y="696"/>
      <point x="207" y="725"/>
      <point x="207" y="761" type="curve" smooth="yes"/>
      <point x="207" y="796"/>
      <point x="236" y="826"/>
      <point x="271" y="826" type="curve" smooth="yes"/>
      <point x="307" y="826"/>
      <point x="336" y="796"/>
      <point x="336" y="761" type="curve" smooth="yes"/>
      <point x="336" y="725"/>
      <point x="307" y="696"/>
    </contour>
    <contour>
      <point x="58" y="157" type="curve" smooth="yes"/>
      <point x="47" y="66"/>
      <point x="114" y="-12"/>
      <point x="215" y="-12" type="curve" smooth="yes"/>
      <point x="297" y="-12"/>
      <point x="348" y="16"/>
      <point x="378" y="53" type="curve"/>
      <point x="378" y="39" type="line" smooth="yes"/>
      <point x="378" y="-9"/>
      <point x="412" y="-12"/>
      <point x="436" y="-12" type="curve" smooth="yes"/>
      <point x="469" y="-12"/>
      <point x="505" y="-3"/>
      <point x="528" y="9" type="curve"/>
      <point x="528" y="42" type="line"/>
      <point x="466" y="42" type="line"/>
      <point x="467" y="377" type="line" smooth="yes"/>
      <point x="467" y="519"/>
      <point x="378" y="556"/>
      <point x="275" y="556" type="curve" smooth="yes"/>
      <point x="226" y="556"/>
      <point x="127" y="538"/>
      <point x="79" y="498" type="curve"/>
      <point x="97" y="454" type="line"/>
      <point x="142" y="476"/>
      <point x="201" y="491"/>
      <point x="239" y="491" type="curve" smooth="yes"/>
      <point x="314" y="491"/>
      <point x="373" y="470"/>
      <point x="373" y="367" type="curve" smooth="yes"/>
      <point x="373" y="325" type="line"/>
      <point x="282" y="325"/>
      <point x="71" y="293"/>
    </contour>
    <contour>
      <point x="152" y="155" type="curve" smooth="yes"/>
      <point x="152" y="250"/>
      <point x="290" y="274"/>
      <point x="373" y="274" type="curve"/>
      <point x="372" y="213"/>
      <point x="372" y="153"/>
      <point x="372" y="92" type="curve"/>
      <point x="352" y="72"/>
      <point x="306" y="50"/>
      <point x="268" y="50" type="curve" smooth="yes"/>
      <point x="195" y="50"/>
      <point x="152" y="79"/>
    </contour>
  </outline>
</glyph>
<glyph name="ccedilla" format="1">
  <advance width="510"/>
  <unicode hex="00E7"/>
  <outline>
    <contour>
      <point x="253" y="-8" type="curve"/>
      <point x="244" y="-44"/>
      <point x="238" y="-74"/>
      <point x="238" y="-104" type="curve"/>
      <point x="240" y="-104"/>
      <point x="254" y="-102"/>
      <point x="262" y="-102" type="curve" smooth="yes"/>
      <point x="314" y="-102"/>
      <point x="338" y="-122"/>
      <point x="338" y="-151" type="curve" smooth="yes"/>
      <point x="338" y="-200"/>
      <point x="306" y="-205"/>
      <point x="270" y="-205" type="curve" smooth="yes"/>
      <point x="258" y="-205"/>
      <point x="230" y="-202"/>
      <point x="215" y="-198" type="curve"/>
      <point x="215" y="-215"/>
      <point x="214" y="-230"/>
      <point x="214" y="-247" type="curve"/>
      <point x="234" y="-252"/>
      <point x="253" y="-260"/>
      <point x="311" y="-257" type="curve" smooth="yes"/>
      <point x="382" y="-253"/>
      <point x="434" y="-218"/>
      <point x="434" y="-153" type="curve" smooth="yes"/>
      <point x="434" y="-111"/>
      <point x="399" y="-61"/>
      <point x="310" y="-61" type="curve"/>
      <point x="308" y="-44"/>
      <point x="309" y="-25"/>
      <point x="310" y="-10" type="curve"/>
      <point x="376" y="-6"/>
      <point x="442" y="13"/>
      <point x="476" y="43" type="curve"/>
      <point x="459" y="86" type="line"/>
      <point x="432" y="70"/>
      <point x="370" y="57"/>
      <point x="319" y="57" type="curve" smooth="yes"/>
      <point x="237" y="57"/>
      <point x="140" y="128"/>
      <point x="141" y="306" type="curve" smooth="yes"/>
      <point x="143" y="440"/>
      <point x="220" y="504"/>
      <point x="307" y="504" type="curve" smooth="yes"/>
      <point x="331" y="504"/>
      <point x="366" y="498"/>
      <point x="387" y="481" type="curve"/>
      <point x="412" y="419" type="line"/>
      <point x="458" y="419" type="line"/>
      <point x="458" y="537" type="line"/>
      <point x="432" y="554"/>
      <point x="373" y="563"/>
      <point x="317" y="561" type="curve" smooth="yes"/>
      <point x="167" y="555"/>
      <point x="50" y="443"/>
      <point x="51" y="263" type="curve" smooth="yes"/>
      <point x="53" y="118"/>
      <point x="123" y="7"/>
    </contour>
  </outline>
</glyph>
<glyph name="edieresis" format="1">
  <advance width="559"/>
  <unicode hex="00EB"/>
  <outline>
    <contour>
      <point x="406" y="675" type="curve" smooth="yes"/>
      <point x="443" y="675"/>
      <point x="479" y="701"/>
      <point x="479" y="744" type="curve" smooth="yes"/>
      <point x="479" y="777"/>
      <point x="460" y="804"/>
      <point x="417" y="804" type="curve" smooth="yes"/>
      <point x="383" y="804"/>
      <point x="346" y="774"/>
      <point x="346" y="733" type="curve" smooth="yes"/>
      <point x="346" y="696"/>
      <point x="375" y="675"/>
    </contour>
    <contour>
      <point x="179" y="675" type="curve" smooth="yes"/>
      <point x="215" y="675"/>
      <point x="252" y="701"/>
      <point x="252" y="744" type="curve" smooth="yes"/>
      <point x="252" y="777"/>
      <point x="233" y="804"/>
      <point x="190" y="804" type="curve" smooth="yes"/>
      <point x="155" y="804"/>
      <point x="118" y="774"/>
      <point x="118" y="733" type="curve" smooth="yes"/>
      <point x="118" y="696"/>
      <point x="147" y="675"/>
    </contour>
    <contour>
      <point x="49" y="271" type="curve" smooth="yes"/>
      <point x="49" y="100"/>
      <point x="137" y="-12"/>
      <point x="294" y="-12" type="curve" smooth="yes"/>
      <point x="369" y="-12"/>
      <point x="456" y="9"/>
      <point x="494" y="43" type="curve"/>
      <point x="476" y="84" type="line"/>
      <point x="448" y="68"/>
      <point x="382" y="55"/>
      <point x="332" y="55" type="curve" smooth="yes"/>
      <point x="248" y="55"/>
      <point x="148" y="97"/>
      <point x="143" y="255" type="curve"/>
      <point x="142" y="259"/>
      <point x="142" y="262"/>
      <point x="142" y="266" type="curve"/>
      <point x="504" y="266" type="line"/>
      <point x="507" y="290"/>
      <point x="511" y="318"/>
      <point x="510" y="359" type="curve" smooth="yes"/>
      <point x="504" y="488"/>
      <point x="434" y="565"/>
      <point x="319" y="563" type="curve" smooth="yes"/>
      <point x="159" y="559"/>
      <point x="49" y="438"/>
    </contour>
    <contour>
      <point x="143" y="324" type="line"/>
      <point x="153" y="458"/>
      <point x="220" y="510"/>
      <point x="293" y="510" type="curve" smooth="yes"/>
      <point x="321" y="510"/>
      <point x="342" y="505"/>
      <point x="359" y="494" type="curve" smooth="yes"/>
      <point x="409" y="462"/>
      <point x="414" y="390"/>
      <point x="410" y="324" type="curve"/>
    </contour>
  </outline>
</glyph>
<glyph name="iacute" format="1">
  <advance width="333"/>
  <unicode hex="00ED"/>
  <outline>
    <contour>
      <point x="128" y="654" type="line"/>
      <point x="182" y="679"/>
      <point x="278" y="736"/>
      <point x="317" y="796" type="curve"/>
      <point x="246" y="869" type="line"/>
      <point x="103" y="681" type="line"/>
    </contour>
    <contour>
      <point x="55" y="0" type="line"/>
      <point x="307" y="0" type="line"/>
      <point x="307" y="42" type="line"/>
      <point x="228" y="52" type="line"/>
      <point x="228" y="546" type="line"/>
      <point x="206" y="556" type="line"/>
      <point x="70" y="518" type="line"/>
      <point x="70" y="487" type="line"/>
      <point x="138" y="452" type="line"/>
      <point x="138" y="52" type="line"/>
      <point x="55" y="42" type="line"/>
    </contour>
  </outline>
</glyph>
<glyph name="divide" format="1">
  <advance width="625"/>
  <unicode hex="00F7"/>
  <outline>
    <contour>
      <point x="308" y="514" type="curve" smooth="yes"/>
      <point x="345" y="514"/>
      <point x="381" y="542"/>
      <point x="381" y="584" type="curve" smooth="yes"/>
      <point x="381" y="618"/>
      <point x="362" y="645"/>
      <point x="319" y="645" type="curve" smooth="yes"/>
      <point x="285" y="645"/>
      <point x="247" y="615"/>
      <point x="247" y="574" type="curve" smooth="yes"/>
      <point x="247" y="536"/>
      <point x="276" y="514"/>
    </contour>
    <contour>
      <point x="87" y="355" type="line"/>
      <point x="539" y="355" type="line"/>
      <point x="539" y="427" type="line"/>
      <point x="87" y="427" type="line"/>
    </contour>
    <contour>
      <point x="247" y="194" type="curve" smooth="yes"/>
      <point x="247" y="157"/>
      <point x="276" y="134"/>
      <point x="308" y="134" type="curve" smooth="yes"/>
      <point x="345" y="134"/>
      <point x="381" y="162"/>
      <point x="381" y="205" type="curve" smooth="yes"/>
      <point x="381" y="238"/>
      <point x="362" y="266"/>
      <point x="319" y="266" type="curve" smooth="yes"/>
      <point x="285" y="266"/>
      <point x="247" y="235"/>
    </contour>
  </outline>
</glyph>
<glyph name="ij" format="1">
  <advance width="651"/>
  <unicode hex="0133"/>
  <outline>
    <contour>
      <point x="493" y="686" type="curve" smooth="yes"/>
      <point x="529" y="686"/>
      <point x="566" y="713"/>
      <point x="566" y="756" type="curve" smooth="yes"/>
      <point x="566" y="790"/>
      <point x="547" y="817"/>
      <point x="504" y="817" type="curve" smooth="yes"/>
      <point x="469" y="817"/>
      <point x="431" y="787"/>
      <point x="431" y="746" type="curve" smooth="yes"/>
      <point x="431" y="708"/>
      <point x="461" y="686"/>
    </contour>
    <contour>
      <point x="163" y="671" type="curve" smooth="yes"/>
      <point x="199" y="671"/>
      <point x="236" y="699"/>
      <point x="236" y="742" type="curve" smooth="yes"/>
      <point x="236" y="775"/>
      <point x="217" y="803"/>
      <point x="174" y="803" type="curve" smooth="yes"/>
      <point x="139" y="803"/>
      <point x="101" y="772"/>
      <point x="101" y="731" type="curve" smooth="yes"/>
      <point x="101" y="694"/>
      <point x="131" y="671"/>
    </contour>
    <contour>
      <point x="329" y="-244" type="line"/>
      <point x="335" y="-249"/>
      <point x="369" y="-251"/>
      <point x="382" y="-251" type="curve" smooth="yes"/>
      <point x="490" y="-251"/>
      <point x="560" y="-160"/>
      <point x="560" y="-8" type="curve" smooth="yes"/>
      <point x="560" y="546" type="line"/>
      <point x="537" y="556" type="line"/>
      <point x="400" y="517" type="line"/>
      <point x="400" y="488" type="line"/>
      <point x="468" y="452" type="line"/>
      <point x="468" y="-1" type="line" smooth="yes"/>
      <point x="468" y="-138"/>
      <point x="446" y="-182"/>
      <point x="383" y="-182" type="curve" smooth="yes"/>
      <point x="372" y="-182"/>
      <point x="340" y="-181"/>
      <point x="329" y="-177" type="curve"/>
    </contour>
    <contour>
      <point x="55" y="0" type="line"/>
      <point x="307" y="0" type="line"/>
      <point x="307" y="42" type="line"/>
      <point x="228" y="52" type="line"/>
      <point x="228" y="546" type="line"/>
      <point x="206" y="556" type="line"/>
      <point x="70" y="518" type="line"/>
      <point x="70" y="487" type="line"/>
      <point x="138" y="452" type="line"/>
      <point x="138" y="52" type="line"/>
      <point x="55" y="42" type="line"/>
    </contour>
  </outline>
</glyph>
<glyph name="Kcommaaccent" format="1">
  <advance width="693"/>
  <unicode hex="0136"/>
  <outline>
    <contour>
      <point x="52" y="0" type="line"/>
      <point x="319" y="0" type="line"/>
      <point x="319" y="42" type="line"/>
      <point x="229" y="55" type="line"/>
      <point x="229" y="280" type="line"/>
      <point x="311" y="374" type="line"/>
      <point x="381" y="303"/>
      <point x="520" y="0"/>
      <point x="554" y="0" type="curve" smooth="yes"/>
      <point x="705" y="0" type="line"/>
      <point x="705" y="42" type="line"/>
      <point x="626" y="60" type="line"/>
      <point x="593" y="60"/>
      <point x="431" y="365"/>
      <point x="366" y="438" type="curve"/>
      <point x="595" y="702" type="line"/>
      <point x="675" y="710" type="line"/>
      <point x="675" y="758" type="line"/>
      <point x="431" y="758" type="line"/>
      <point x="431" y="742"/>
      <point x="432" y="727"/>
      <point x="432" y="710" type="curve"/>
      <point x="507" y="702" type="line"/>
      <point x="229" y="365" type="line"/>
      <point x="229" y="702" type="line"/>
      <point x="309" y="710" type="line"/>
      <point x="309" y="758" type="line"/>
      <point x="54" y="758" type="line"/>
      <point x="54" y="710" type="line"/>
      <point x="134" y="702" type="line"/>
      <point x="134" y="56" type="line"/>
      <point x="52" y="42" type="line"/>
    </contour>
    <contour>
      <point x="349" y="-71" type="line"/>
      <point x="349" y="-97" type="line"/>
      <point x="366" y="-97"/>
      <point x="398" y="-126"/>
      <point x="398" y="-164" type="curve" smooth="yes"/>
      <point x="398" y="-207"/>
      <point x="386" y="-258"/>
      <point x="349" y="-275" type="curve"/>
      <point x="349" y="-288" type="line"/>
      <point x="376" y="-313" type="line"/>
      <point x="420" y="-301"/>
      <point x="499" y="-233"/>
      <point x="499" y="-144" type="curve" smooth="yes"/>
      <point x="499" y="-96"/>
      <point x="466" y="-38"/>
      <point x="398" y="-20" type="curve"/>
    </contour>
  </outline>
</glyph>
<glyph name="kgreenlandic" format="1">
  <advance width="622"/>
  <unicode hex="0138"/>
  <outline>
    <contour>
      <point x="54" y="0" type="line"/>
      <point x="298" y="0" type="line"/>
      <point x="298" y="42" type="line"/>
      <point x="228" y="51" type="line"/>
      <point x="228" y="106" type="line"/>
      <point x="225" y="201" type="line"/>
      <point x="302" y="278" type="line"/>
      <point x="463" y="53" type="line"/>
      <point x="395" y="42" type="line"/>
      <point x="395" y="0" type="line"/>
      <point x="632" y="0" type="line"/>
      <point x="632" y="42" type="line"/>
      <point x="565" y="52" type="line"/>
      <point x="359" y="325" type="line"/>
      <point x="525" y="492" type="line"/>
      <point x="599" y="500" type="line"/>
      <point x="599" y="551" type="line"/>
      <point x="369" y="551" type="line"/>
      <point x="369" y="500" type="line"/>
      <point x="442" y="493" type="line"/>
      <point x="225" y="269" type="line"/>
      <point x="228" y="344" type="line"/>
      <point x="228" y="549" type="line"/>
      <point x="208" y="560" type="line"/>
      <point x="46" y="540" type="line"/>
      <point x="46" y="497" type="line"/>
      <point x="134" y="479" type="line"/>
      <point x="134" y="52" type="line"/>
      <point x="54" y="42" type="line"/>
    </contour>
  </outline>
</glyph>
<glyph name="Nacute" format="1">
  <advance width="812"/>
  <unicode hex="0143"/>
  <outline>
    <contour>
      <point x="401" y="785" type="line"/>
      <point x="462" y="795"/>
      <point x="535" y="826"/>
      <point x="596" y="865" type="curve"/>
      <point x="525" y="938" type="line"/>
      <point x="375" y="811" type="line"/>
    </contour>
    <contour>
      <point x="51" y="0" type="line"/>
      <point x="299" y="0" type="line"/>
      <point x="299" y="42" type="line"/>
      <point x="204" y="56" type="line"/>
      <point x="204" y="644" type="line"/>
      <point x="271" y="508" type="line"/>
      <point x="593" y="0" type="line"/>
      <point x="693" y="0" type="line"/>
      <point x="693" y="697" type="line"/>
      <point x="774" y="706" type="line"/>
      <point x="774" y="758" type="line"/>
      <point x="543" y="758" type="line"/>
      <point x="543" y="706" type="line"/>
      <point x="623" y="697" type="line"/>
      <point x="623" y="90" type="line"/>
      <point x="554" y="224" type="line"/>
      <point x="227" y="758" type="line"/>
      <point x="54" y="758" type="line"/>
      <point x="54" y="705" type="line"/>
      <point x="134" y="697" type="line"/>
      <point x="134" y="56" type="line"/>
      <point x="51" y="42" type="line"/>
    </contour>
  </outline>
</glyph>
<glyph name="oe" format="1">
  <advance width="990"/>
  <unicode hex="0153"/>
  <outline>
    <contour>
      <point x="50" y="284" type="curve" smooth="yes"/>
      <point x="48" y="129"/>
      <point x="119" y="-12"/>
      <point x="298" y="-12" type="curve" smooth="yes"/>
      <point x="388" y="-12"/>
      <point x="466" y="37"/>
      <point x="512" y="118" type="curve"/>
      <point x="550" y="36"/>
      <point x="623" y="-12"/>
      <point x="727" y="-12" type="curve" smooth="yes"/>
      <point x="801" y="-12"/>
      <point x="888" y="9"/>
      <point x="926" y="43" type="curve"/>
      <point x="908" y="84" type="line"/>
      <point x="880" y="68"/>
      <point x="814" y="55"/>
      <point x="764" y="55" type="curve" smooth="yes"/>
      <point x="680" y="55"/>
      <point x="580" y="97"/>
      <point x="575" y="255" type="curve"/>
      <point x="574" y="259"/>
      <point x="574" y="262"/>
      <point x="574" y="266" type="curve"/>
      <point x="936" y="266" type="line"/>
      <point x="939" y="290"/>
      <point x="943" y="318"/>
      <point x="942" y="359" type="curve" smooth="yes"/>
      <point x="937" y="488"/>
      <point x="866" y="565"/>
      <point x="751" y="563" type="curve" smooth="yes"/>
      <point x="649" y="560"/>
      <point x="569" y="512"/>
      <point x="522" y="434" type="curve"/>
      <point x="486" y="512"/>
      <point x="416" y="564"/>
      <point x="310" y="563" type="curve" smooth="yes"/>
      <point x="175" y="561"/>
      <point x="53" y="458"/>
    </contour>
    <contour>
      <point x="302" y="43" type="curve" smooth="yes"/>
      <point x="199" y="45"/>
      <point x="150" y="162"/>
      <point x="150" y="289" type="curve" smooth="yes"/>
      <point x="150" y="429"/>
      <point x="194" y="513"/>
      <point x="304" y="511" type="curve" smooth="yes"/>
      <point x="408" y="509"/>
      <point x="453" y="407"/>
      <point x="453" y="275" type="curve" smooth="yes"/>
      <point x="453" y="125"/>
      <point x="413" y="41"/>
    </contour>
    <contour>
      <point x="575" y="324" type="line"/>
      <point x="585" y="458"/>
      <point x="652" y="510"/>
      <point x="726" y="510" type="curve" smooth="yes"/>
      <point x="753" y="510"/>
      <point x="774" y="505"/>
      <point x="791" y="494" type="curve" smooth="yes"/>
      <point x="841" y="462"/>
      <point x="846" y="390"/>
      <point x="842" y="324" type="curve"/>
    </contour>
  </outline>
</glyph>
<glyph name="zdotaccent" format="1">
  <advance width="526"/>
  <unicode hex="017C"/>
  <outline>
    <contour>
      <point x="260" y="664" type="curve" smooth="yes"/>
      <point x="297" y="664"/>
      <point x="333" y="692"/>
      <point x="333" y="735" type="curve" smooth="yes"/>
      <point x="333" y="768"/>
      <point x="314" y="795"/>
      <point x="271" y="795" type="curve" smooth="yes"/>
      <point x="237" y="795"/>
      <point x="199" y="765"/>
      <point x="199" y="724" type="curve" smooth="yes"/>
      <point x="199" y="687"/>
      <point x="229" y="664"/>
    </contour>
    <contour>
      <point x="59" y="0" type="line"/>
      <point x="490" y="0" type="line"/>
      <point x="498" y="141" type="line"/>
      <point x="481" y="141"/>
      <point x="465" y="141"/>
      <point x="448" y="141" type="curve"/>
      <point x="417" y="59" type="line"/>
      <point x="158" y="48" type="line"/>
      <point x="207" y="111" type="line"/>
      <point x="493" y="506" type="line"/>
      <point x="480" y="546" type="line"/>
      <point x="66" y="546" type="line"/>
      <point x="66" y="403" type="line"/>
      <point x="111" y="403" type="line"/>
      <point x="141" y="493" type="line"/>
      <point x="380" y="500" type="line"/>
      <point x="340" y="453" type="line"/>
      <point x="77" y="86" type="line"/>
      <point x="43" y="40" type="line"/>
    </contour>
  </outline>
</glyph>
<glyph name="zcaron" format="1">
  <advance width="526"/>
  <unicode hex="017E"/>
  <outline>
    <contour>
      <point x="229" y="652" type="line"/>
      <point x="321" y="652" type="line"/>
      <point x="450" y="844" type="line"/>
      <point x="413" y="867" type="line"/>
      <point x="275" y="736" type="line"/>
      <point x="138" y="866" type="line"/>
      <point x="96" y="844" type="line"/>
    </contour>
    <contour>
      <point x="59" y="0" type="line"/>
      <point x="490" y="0" type="line"/>
      <point x="498" y="141" type="line"/>
      <point x="481" y="141"/>
      <point x="465" y="141"/>
      <point x="448" y="141" type="curve"/>
      <point x="417" y="59" type="line"/>
      <point x="158" y="48" type="line"/>
      <point x="207" y="111" type="line"/>
      <point x="493" y="506" type="line"/>
      <point x="480" y="546" type="line"/>
      <point x="66" y="546" type="line"/>
      <point x="66" y="403" type="line"/>
      <point x="111" y="403" type="line"/>
      <point x="141" y="493" type="line"/>
      <point x="380" y="500" type="line"/>
      <point x="340" y="453" type="line"/>
      <point x="77" y="86" type="line"/>
      <point x="43" y="40" type="line"/>
    </contour>
  </outline>
</glyph>
<glyph name="breve" format="1">
  <advance width="519"/>
  <unicode hex="02D8"/>
  <outline>
    <contour>
      <point x="259" y="673" type="curve" smooth="yes"/>
      <point x="353" y="673"/>
      <point x="422" y="750"/>
      <point x="422" y="830" type="curve"/>
      <point x="378" y="830" type="line"/>
      <point x="369" y="816"/>
      <point x="354" y="744"/>
      <point x="260" y="744" type="curve" smooth="yes"/>
      <point x="167" y="744"/>
      <point x="150" y="817"/>
      <point x="142" y="829" type="curve"/>
      <point x="96" y="829" type="line"/>
      <point x="96" y="750"/>
      <point x="160" y="673"/>
    </contour>
  </outline>
</glyph>
<glyph name="dotaccent" format="1">
  <advance width="281"/>
  <unicode hex="02D9"/>
  <outline>
    <contour>
      <point x="133" y="664" type="curve" smooth="yes"/>
      <point x="170" y="664"/>
      <point x="207" y="692"/>
      <point x="207" y="735" type="curve" smooth="yes"/>
      <point x="207" y="768"/>
      <point x="188" y="795"/>
      <point x="145" y="795" type="curve" smooth="yes"/>
      <point x="110" y="795"/>
      <point x="72" y="765"/>
      <point x="72" y="724" type="curve" smooth="yes"/>
      <point x="72" y="687"/>
      <point x="102" y="664"/>
    </contour>
  </outline>
</glyph>
<glyph name="ring" format="1">
  <advance width="281"/>
  <unicode hex="02DA"/>
  <outline>
    <contour>
      <point x="140" y="645" type="curve" smooth="yes"/>
      <point x="208" y="645"/>
      <point x="263" y="697"/>
      <point x="263" y="762" type="curve" smooth="yes"/>
      <point x="263" y="827"/>
      <point x="208" y="880"/>
      <point x="140" y="880" type="curve" smooth="yes"/>
      <point x="73" y="880"/>
      <point x="17" y="827"/>
      <point x="17" y="762" type="curve" smooth="yes"/>
      <point x="17" y="697"/>
      <point x="73" y="645"/>
    </contour>
    <contour>
      <point x="140" y="696" type="curve" smooth="yes"/>
      <point x="104" y="696"/>
      <point x="75" y="725"/>
      <point x="75" y="761" type="curve" smooth="yes"/>
      <point x="75" y="796"/>
      <point x="104" y="826"/>
      <point x="140" y="826" type="curve" smooth="yes"/>
      <point x="176" y="826"/>
      <point x="205" y="796"/>
      <point x="205" y="761" type="curve" smooth="yes"/>
      <point x="205" y="725"/>
      <point x="176" y="696"/>
    </contour>
  </outline>
</glyph>
<glyph name="uudeva" format="1">
  <advance width="859"/>
  <unicode hex="090A"/>
  <outline>
    <contour>
      <point x="25" y="268" type="line"/>
      <point x="74" y="180"/>
      <point x="208" y="-10"/>
      <point x="382" y="-10" type="curve" smooth="yes"/>
      <point x="483" y="-10"/>
      <point x="542" y="80"/>
      <point x="542" y="150" type="curve" smooth="yes"/>
      <point x="542" y="172"/>
      <point x="536" y="192"/>
      <point x="526" y="212" type="curve"/>
      <point x="578" y="267"/>
      <point x="631" y="313"/>
      <point x="683" y="313" type="curve" smooth="yes"/>
      <point x="724" y="313"/>
      <point x="754" y="291"/>
      <point x="754" y="243" type="curve" smooth="yes"/>
      <point x="754" y="180"/>
      <point x="682" y="103"/>
      <point x="654" y="72" type="curve"/>
      <point x="749" y="22" type="line"/>
      <point x="778" y="71"/>
      <point x="805" y="162"/>
      <point x="805" y="218" type="curve" smooth="yes"/>
      <point x="805" y="315"/>
      <point x="724" y="388"/>
      <point x="667" y="388" type="curve" smooth="yes"/>
      <point x="598" y="388"/>
      <point x="521" y="329"/>
      <point x="468" y="287" type="curve"/>
      <point x="452" y="301"/>
      <point x="436" y="313"/>
      <point x="422" y="325" type="curve"/>
      <point x="455" y="350"/>
      <point x="478" y="386"/>
      <point x="478" y="434" type="curve" smooth="yes"/>
      <point x="478" y="470"/>
      <point x="442" y="528"/>
      <point x="405" y="575" type="curve"/>
      <point x="859" y="575" type="line"/>
      <point x="859" y="590" type="line"/>
      <point x="827" y="650" type="line"/>
      <point x="-31" y="650" type="line"/>
      <point x="-31" y="634" type="line"/>
      <point x="0" y="575" type="line"/>
      <point x="334" y="575" type="line"/>
      <point x="363" y="554"/>
      <point x="410" y="509"/>
      <point x="410" y="470" type="curve" smooth="yes"/>
      <point x="410" y="415"/>
      <point x="364" y="380"/>
      <point x="275" y="380" type="curve" smooth="yes"/>
      <point x="245" y="380"/>
      <point x="209" y="386"/>
      <point x="191" y="388" type="curve"/>
      <point x="182" y="371" type="line"/>
      <point x="214" y="299" type="line"/>
      <point x="239" y="291"/>
      <point x="268" y="286"/>
      <point x="303" y="286" type="curve" smooth="yes"/>
      <point x="326" y="286"/>
      <point x="350" y="291"/>
      <point x="374" y="299" type="curve"/>
      <point x="411" y="273"/>
      <point x="464" y="234"/>
      <point x="464" y="179" type="curve" smooth="yes"/>
      <point x="464" y="128"/>
      <point x="419" y="70"/>
      <point x="345" y="70" type="curve" smooth="yes"/>
      <point x="237" y="70"/>
      <point x="110" y="199"/>
      <point x="60" y="294" type="curve"/>
    </contour>
    <contour>
      <point x="365" y="650" type="move" name="top"/>
    </contour>
    <contour>
      <point x="382" y="-10" type="move" name="bottom"/>
    </contour>
  </outline>
</glyph>
<glyph name="ecandradeva" format="1">
  <advance width="588"/>
  <unicode hex="090D"/>
  <outline>
    <contour>
      <point x="399" y="325" type="line" smooth="yes"/>
      <point x="399" y="281"/>
      <point x="362" y="263"/>
      <point x="319" y="244" type="curve"/>
      <point x="319" y="233" type="line"/>
      <point x="384" y="189" type="line"/>
      <point x="427" y="204"/>
      <point x="487" y="242"/>
      <point x="487" y="342" type="curve" smooth="yes"/>
      <point x="487" y="575" type="line"/>
      <point x="588" y="575" type="line"/>
      <point x="588" y="590" type="line"/>
      <point x="556" y="650" type="line"/>
      <point x="-31" y="650" type="line"/>
      <point x="-31" y="634" type="line"/>
      <point x="0" y="575" type="line"/>
      <point x="91" y="575" type="line"/>
      <point x="91" y="279" type="line" smooth="yes"/>
      <point x="91" y="232"/>
      <point x="103" y="211"/>
      <point x="199" y="147" type="curve" smooth="yes"/>
      <point x="559" y="-95" type="line"/>
      <point x="505" y="-154" type="line"/>
      <point x="505" y="-156" type="line"/>
      <point x="514" y="-176"/>
      <point x="536" y="-202"/>
      <point x="573" y="-202" type="curve" smooth="yes"/>
      <point x="613" y="-202"/>
      <point x="647" y="-180"/>
      <point x="647" y="-136" type="curve" smooth="yes"/>
      <point x="647" y="-101"/>
      <point x="625" y="-73"/>
      <point x="529" y="-10" type="curve" smooth="yes"/>
      <point x="224" y="197" type="line" smooth="yes"/>
      <point x="186" y="223"/>
      <point x="180" y="240"/>
      <point x="180" y="268" type="curve" smooth="yes"/>
      <point x="180" y="575" type="line"/>
      <point x="399" y="575" type="line"/>
    </contour>
    <contour>
      <point x="433" y="918" type="line"/>
      <point x="406" y="874"/>
      <point x="345" y="818"/>
      <point x="257" y="818" type="curve" smooth="yes"/>
      <point x="191" y="818"/>
      <point x="139" y="867"/>
      <point x="98" y="925" type="curve"/>
      <point x="65" y="911" type="line"/>
      <point x="104" y="843"/>
      <point x="183" y="752"/>
      <point x="295" y="752" type="curve" smooth="yes"/>
      <point x="392" y="752"/>
      <point x="451" y="798"/>
      <point x="498" y="857" type="curve"/>
    </contour>
    <contour>
      <point x="276" y="783" type="move" name="top"/>
    </contour>
  </outline>
</glyph>
<glyph name="aideva" format="1">
  <advance width="588"/>
  <unicode hex="0910"/>
  <outline>
    <contour>
      <point x="399" y="325" type="line" smooth="yes"/>
      <point x="399" y="281"/>
      <point x="362" y="263"/>
      <point x="319" y="244" type="curve"/>
      <point x="319" y="233" type="line"/>
      <point x="384" y="189" type="line"/>
      <point x="427" y="204"/>
      <point x="487" y="242"/>
      <point x="487" y="342" type="curve" smooth="yes"/>
      <point x="487" y="575" type="line"/>
      <point x="588" y="575" type="line"/>
      <point x="588" y="590" type="line"/>
      <point x="556" y="650" type="line"/>
      <point x="465" y="650" type="line"/>
      <point x="446" y="692"/>
      <point x="410" y="765"/>
      <point x="391" y="801" type="curve" smooth="yes"/>
      <point x="327" y="924"/>
      <point x="262" y="1018"/>
      <point x="164" y="1018" type="curve" smooth="yes"/>
      <point x="121" y="1018"/>
      <point x="93" y="996"/>
      <point x="93" y="956" type="curve" smooth="yes"/>
      <point x="93" y="928"/>
      <point x="109" y="900"/>
      <point x="128" y="885" type="curve"/>
      <point x="247" y="921" type="line"/>
      <point x="269" y="910"/>
      <point x="309" y="844"/>
      <point x="360" y="753" type="curve" smooth="yes"/>
      <point x="369" y="738"/>
      <point x="396" y="682"/>
      <point x="411" y="650" type="curve"/>
      <point x="-31" y="650" type="line"/>
      <point x="-31" y="634" type="line"/>
      <point x="0" y="575" type="line"/>
      <point x="91" y="575" type="line"/>
      <point x="91" y="279" type="line" smooth="yes"/>
      <point x="91" y="232"/>
      <point x="103" y="211"/>
      <point x="199" y="147" type="curve" smooth="yes"/>
      <point x="559" y="-95" type="line"/>
      <point x="505" y="-154" type="line"/>
      <point x="505" y="-156" type="line"/>
      <point x="514" y="-176"/>
      <point x="536" y="-202"/>
      <point x="573" y="-202" type="curve" smooth="yes"/>
      <point x="613" y="-202"/>
      <point x="647" y="-180"/>
      <point x="647" y="-136" type="curve" smooth="yes"/>
      <point x="647" y="-101"/>
      <point x="625" y="-73"/>
      <point x="529" y="-10" type="curve" smooth="yes"/>
      <point x="224" y="197" type="line" smooth="yes"/>
      <point x="186" y="223"/>
      <point x="180" y="240"/>
      <point x="180" y="268" type="curve" smooth="yes"/>
      <point x="180" y="575" type="line"/>
      <point x="399" y="575" type="line"/>
    </contour>
  </outline>
</glyph>
<glyph name="chadeva" format="1">
  <advance width="815"/>
  <unicode hex="091B"/>
  <outline>
    <contour>
      <point x="473" y="484"/>
      <point x="407" y="460"/>
      <point x="407" y="379" type="curve" smooth="yes"/>
      <point x="407" y="289"/>
      <point x="481" y="221"/>
      <point x="560" y="177" type="curve" smooth="yes"/>
      <point x="648" y="128"/>
      <point x="741" y="103"/>
      <point x="740" y="45" type="curve"/>
      <point x="740" y="-4"/>
      <point x="692" y="-59"/>
      <point x="660" y="-94" type="curve" smooth="yes"/>
      <point x="732" y="-162" type="line" smooth="yes"/>
      <point x="761" y="-110"/>
      <point x="793" y="-23"/>
      <point x="793" y="30" type="curve"/>
      <point x="793" y="137"/>
      <point x="686" y="171"/>
      <point x="594" y="218" type="curve" smooth="yes"/>
      <point x="535" y="248"/>
      <point x="483" y="293"/>
      <point x="483" y="354" type="curve" smooth="yes"/>
      <point x="483" y="400"/>
      <point x="510" y="422"/>
      <point x="547" y="422" type="curve" smooth="yes"/>
      <point x="589" y="422"/>
      <point x="641" y="398"/>
      <point x="641" y="334" type="curve" smooth="yes"/>
      <point x="641" y="178"/>
      <point x="483" y="45"/>
      <point x="307" y="45" type="curve" smooth="yes"/>
      <point x="251" y="45"/>
      <point x="206" y="89"/>
      <point x="206" y="122" type="curve" smooth="yes"/>
      <point x="206" y="159"/>
      <point x="233" y="215"/>
      <point x="294" y="215" type="curve" smooth="yes"/>
      <point x="317" y="215"/>
      <point x="345" y="212"/>
      <point x="365" y="207" type="curve"/>
      <point x="375" y="233" type="line"/>
      <point x="356" y="278" type="line"/>
      <point x="333" y="283"/>
      <point x="302" y="285"/>
      <point x="268" y="285" type="curve" smooth="yes"/>
      <point x="194" y="285"/>
      <point x="119" y="222"/>
      <point x="119" y="148" type="curve" smooth="yes"/>
      <point x="119" y="97"/>
      <point x="254" y="-27"/>
      <point x="358" y="-27" type="curve" smooth="yes"/>
      <point x="536" y="-27"/>
      <point x="713" y="133"/>
      <point x="713" y="303" type="curve" smooth="yes"/>
      <point x="713" y="444"/>
      <point x="584" y="484"/>
      <point x="526" y="484" type="curve"/>
    </contour>
    <contour>
      <point x="117" y="474"/>
      <point x="59" y="416"/>
      <point x="59" y="358" type="curve" smooth="yes"/>
      <point x="59" y="309"/>
      <point x="106" y="276"/>
      <point x="165" y="234" type="curve"/>
      <point x="216" y="274" type="line"/>
      <point x="185" y="269"/>
      <point x="134" y="297"/>
      <point x="134" y="335" type="curve" smooth="yes"/>
      <point x="134" y="383"/>
      <point x="173" y="408"/>
      <point x="212" y="408" type="curve" smooth="yes"/>
      <point x="242" y="408"/>
      <point x="286" y="397"/>
      <point x="317" y="380" type="curve"/>
      <point x="284" y="458" type="line"/>
      <point x="269" y="465"/>
      <point x="234" y="474"/>
      <point x="195" y="474" type="curve" smooth="yes"/>
    </contour>
    <contour>
      <point x="-31" y="650" type="line"/>
      <point x="-31" y="634" type="line"/>
      <point x="0" y="575" type="line"/>
      <point x="815" y="575" type="line"/>
      <point x="815" y="590" type="line"/>
      <point x="783" y="650" type="line"/>
    </contour>
    <contour>
      <point x="513" y="595" type="line"/>
      <point x="513" y="453" type="line"/>
      <point x="601" y="437" type="line"/>
      <point x="601" y="595" type="line"/>
    </contour>
    <contour>
      <point x="358" y="-148" type="move" name="nukta"/>
    </contour>
    <contour>
      <point x="557" y="0" type="move" name="bottom"/>
    </contour>
    <contour>
      <point x="557" y="650" type="move" name="top"/>
    </contour>
  </outline>
</glyph>
<glyph name="ecandravowelsigndeva" format="1">
  <advance width="0"/>
  <unicode hex="0945"/>
  <outline>
    <contour>
      <point x="11" y="918" type="line"/>
      <point x="-17" y="874"/>
      <point x="-78" y="818"/>
      <point x="-165" y="818" type="curve" smooth="yes"/>
      <point x="-231" y="818"/>
      <point x="-284" y="867"/>
      <point x="-325" y="925" type="curve"/>
      <point x="-357" y="911" type="line"/>
      <point x="-317" y="843"/>
      <point x="-239" y="752"/>
      <point x="-127" y="752" type="curve" smooth="yes"/>
      <point x="-29" y="752"/>
      <point x="28" y="798"/>
      <point x="75" y="857" type="curve"/>
    </contour>
    <contour>
      <point x="-145" y="783" type="move" name="top"/>
    </contour>
    <contour>
      <point x="-153" y="650" type="move" name="_top"/>
    </contour>
  </outline>
</glyph>
<glyph name="uni0957" format="1">
  <advance width="0"/>
  <unicode hex="0957"/>
  <outline>
    <contour>
      <point x="-313" y="-147"/>
      <point x="-369" y="-107"/>
      <point x="-405" y="-61" type="curve"/>
      <point x="-443" y="-92" type="line"/>
      <point x="-404" y="-160"/>
      <point x="-320" y="-217"/>
      <point x="-225" y="-217" type="curve"/>
      <point x="-131" y="-217"/>
      <point x="-47" y="-160"/>
      <point x="-8" y="-92" type="curve"/>
      <point x="-45" y="-61" type="line"/>
      <point x="-81" y="-107"/>
      <point x="-137" y="-147"/>
      <point x="-225" y="-147" type="curve"/>
    </contour>
    <contour>
      <point x="-313" y="-313"/>
      <point x="-369" y="-273"/>
      <point x="-405" y="-227" type="curve"/>
      <point x="-443" y="-258" type="line"/>
      <point x="-404" y="-326"/>
      <point x="-320" y="-383"/>
      <point x="-225" y="-383" type="curve"/>
      <point x="-131" y="-383"/>
      <point x="-47" y="-326"/>
      <point x="-8" y="-258" type="curve"/>
      <point x="-45" y="-227" type="line"/>
      <point x="-81" y="-273"/>
      <point x="-137" y="-313"/>
      <point x="-225" y="-313" type="curve"/>
    </contour>
  </outline>
</glyph>
<glyph name="yyadeva" format="1">
  <advance width="637"/>
  <unicode hex="095F"/>
  <outline>
    <component base="uni092F"/>
    <component base="nuktadeva" xOffset="227" yOffset="203"/>
    <contour>
      <point x="484" y="650" type="move" name="top"/>
    </contour>
    <contour>
      <point x="484" y="0" type="move" name="bottom"/>
    </contour>
  </outline>
</glyph>
<glyph name="twodeva" format="1">
  <advance width="631"/>
  <unicode hex="0968"/>
  <outline>
    <contour>
      <point x="152" y="516" type="line"/>
      <point x="206" y="549"/>
      <point x="295" y="587"/>
      <point x="357" y="587" type="curve" smooth="yes"/>
      <point x="418" y="587"/>
      <point x="446" y="530"/>
      <point x="446" y="465" type="curve" smooth="yes"/>
      <point x="446" y="367"/>
      <point x="353" y="280"/>
      <point x="247" y="248" type="curve"/>
      <point x="247" y="332" type="line"/>
      <point x="238" y="336"/>
      <point x="231" y="337"/>
      <point x="218" y="337" type="curve" smooth="yes"/>
      <point x="178" y="337"/>
      <point x="130" y="310"/>
      <point x="130" y="263" type="curve" smooth="yes"/>
      <point x="130" y="225"/>
      <point x="174" y="188"/>
      <point x="223" y="176" type="curve"/>
      <point x="415" y="-150" type="line"/>
      <point x="477" y="-110" type="line"/>
      <point x="290" y="173" type="line"/>
      <point x="434" y="188"/>
      <point x="528" y="318"/>
      <point x="528" y="424" type="curve" smooth="yes"/>
      <point x="528" y="523"/>
      <point x="412" y="677"/>
      <point x="317" y="677" type="curve" smooth="yes"/>
      <point x="243" y="677"/>
      <point x="177" y="654"/>
      <point x="83" y="615" type="curve"/>
    </contour>
  </outline>
</glyph>
<glyph name="fourdeva" format="1">
  <advance width="631"/>
  <unicode hex="096A"/>
  <outline>
    <contour>
      <point x="570" y="688" type="line"/>
      <point x="462" y="578"/>
      <point x="374" y="495"/>
      <point x="307" y="428" type="curve"/>
      <point x="201" y="523"/>
      <point x="89" y="614"/>
      <point x="49" y="650" type="curve"/>
      <point x="6" y="598" type="line"/>
      <point x="48" y="564"/>
      <point x="175" y="481"/>
      <point x="272" y="394" type="curve"/>
      <point x="183" y="305"/>
      <point x="141" y="247"/>
      <point x="141" y="185" type="curve" smooth="yes"/>
      <point x="141" y="88"/>
      <point x="256" y="23"/>
      <point x="331" y="23" type="curve" smooth="yes"/>
      <point x="420" y="23"/>
      <point x="529" y="69"/>
      <point x="529" y="155" type="curve" smooth="yes"/>
      <point x="529" y="207"/>
      <point x="460" y="285"/>
      <point x="373" y="368" type="curve"/>
      <point x="433" y="425"/>
      <point x="509" y="495"/>
      <point x="612" y="589" type="curve"/>
    </contour>
    <contour>
      <point x="359" y="308" type="line" smooth="yes"/>
      <point x="407" y="259"/>
      <point x="416" y="226"/>
      <point x="416" y="207" type="curve" smooth="yes"/>
      <point x="416" y="145"/>
      <point x="357" y="85"/>
      <point x="296" y="85" type="curve" smooth="yes"/>
      <point x="255" y="85"/>
      <point x="220" y="115"/>
      <point x="220" y="153" type="curve" smooth="yes"/>
      <point x="220" y="199"/>
      <point x="253" y="248"/>
      <point x="336" y="332" type="curve"/>
    </contour>
  </outline>
</glyph>
<glyph name="uni0972" format="1">
  <advance width="843"/>
  <unicode hex="0972"/>
  <outline>
    <component base="adeva"/>
    <component base="ecandravowelsigndeva" xOffset="843"/>
    <contour>
      <point x="690" y="704" type="move" name="top"/>
    </contour>
  </outline>
</glyph>
<glyph name="minus" format="1">
  <advance width="606"/>
  <unicode hex="2212"/>
  <outline>
    <contour>
      <point x="87" y="355" type="line"/>
      <point x="519" y="355" type="line"/>
      <point x="519" y="427" type="line"/>
      <point x="87" y="427" type="line"/>
    </contour>
  </outline>
</glyph>
<glyph name="infinity" format="1">
  <advance width="864"/>
  <unicode hex="221E"/>
  <outline>
    <contour>
      <point x="245" y="117" type="curve" smooth="yes"/>
      <point x="320" y="119"/>
      <point x="369" y="180"/>
      <point x="419" y="247" type="curve"/>
      <point x="471" y="183"/>
      <point x="532" y="117"/>
      <point x="617" y="117" type="curve" smooth="yes"/>
      <point x="719" y="117"/>
      <point x="808" y="201"/>
      <point x="808" y="311" type="curve" smooth="yes"/>
      <point x="808" y="399"/>
      <point x="756" y="487"/>
      <point x="629" y="485" type="curve" smooth="yes"/>
      <point x="553" y="484"/>
      <point x="497" y="421"/>
      <point x="445" y="355" type="curve"/>
      <point x="394" y="419"/>
      <point x="333" y="485"/>
      <point x="247" y="485" type="curve" smooth="yes"/>
      <point x="146" y="485"/>
      <point x="56" y="401"/>
      <point x="56" y="292" type="curve" smooth="yes"/>
      <point x="56" y="204"/>
      <point x="118" y="115"/>
    </contour>
    <contour>
      <point x="255" y="174" type="curve" smooth="yes"/>
      <point x="187" y="174"/>
      <point x="142" y="241"/>
      <point x="142" y="310" type="curve" smooth="yes"/>
      <point x="142" y="368"/>
      <point x="167" y="426"/>
      <point x="232" y="426" type="curve" smooth="yes"/>
      <point x="299" y="426"/>
      <point x="351" y="340"/>
      <point x="393" y="284" type="curve"/>
      <point x="355" y="229"/>
      <point x="309" y="174"/>
    </contour>
    <contour>
      <point x="472" y="317" type="curve"/>
      <point x="513" y="370"/>
      <point x="565" y="423"/>
      <point x="619" y="423" type="curve" smooth="yes"/>
      <point x="687" y="423"/>
      <point x="722" y="359"/>
      <point x="722" y="293" type="curve" smooth="yes"/>
      <point x="722" y="232"/>
      <point x="707" y="172"/>
      <point x="642" y="172" type="curve" smooth="yes"/>
      <point x="575" y="172"/>
      <point x="515" y="258"/>
    </contour>
  </outline>
</glyph>
<glyph name="notequal" format="1">
  <advance width="606"/>
  <unicode hex="2260"/>
  <outline>
    <contour>
      <point x="199" y="173" type="line"/>
      <point x="284" y="173" type="line"/>
      <point x="309" y="256" type="line"/>
      <point x="519" y="256" type="line"/>
      <point x="519" y="328" type="line"/>
      <point x="330" y="328" type="line"/>
      <point x="363" y="446" type="line"/>
      <point x="519" y="446" type="line"/>
      <point x="519" y="518" type="line"/>
      <point x="384" y="518" type="line"/>
      <point x="410" y="605" type="line"/>
      <point x="325" y="605" type="line"/>
      <point x="299" y="518" type="line"/>
      <point x="87" y="518" type="line"/>
      <point x="87" y="446" type="line"/>
      <point x="278" y="446" type="line"/>
      <point x="245" y="328" type="line"/>
      <point x="87" y="328" type="line"/>
      <point x="87" y="256" type="line"/>
      <point x="223" y="256" type="line"/>
    </contour>
  </outline>
</glyph>
<glyph name="fi" format="1">
  <advance width="742"/>
  <unicode hex="FB01"/>
  <outline>
    <contour>
      <point x="54" y="0" type="line"/>
      <point x="358" y="0" type="line"/>
      <point x="358" y="42" type="line"/>
      <point x="246" y="51" type="line"/>
      <point x="246" y="480" type="line"/>
      <point x="393" y="480" type="line"/>
      <point x="393" y="546" type="line"/>
      <point x="246" y="546" type="line"/>
      <point x="246" y="627" type="line" smooth="yes"/>
      <point x="246" y="738"/>
      <point x="280" y="749"/>
      <point x="333" y="749" type="curve" smooth="yes"/>
      <point x="379" y="749"/>
      <point x="413" y="739"/>
      <point x="422" y="733" type="curve"/>
      <point x="422" y="816" type="line"/>
      <point x="415" y="820"/>
      <point x="396" y="825"/>
      <point x="352" y="825" type="curve" smooth="yes"/>
      <point x="270" y="825"/>
      <point x="152" y="732"/>
      <point x="152" y="587" type="curve" smooth="yes"/>
      <point x="152" y="546" type="line"/>
      <point x="44" y="518" type="line"/>
      <point x="44" y="480" type="line"/>
      <point x="152" y="480" type="line"/>
      <point x="152" y="52" type="line"/>
      <point x="54" y="42" type="line"/>
    </contour>
    <contour>
      <point x="571" y="671" type="curve" smooth="yes"/>
      <point x="608" y="671"/>
      <point x="645" y="699"/>
      <point x="645" y="742" type="curve" smooth="yes"/>
      <point x="645" y="775"/>
      <point x="625" y="803"/>
      <point x="583" y="803" type="curve" smooth="yes"/>
      <point x="548" y="803"/>
      <point x="510" y="772"/>
      <point x="510" y="731" type="curve" smooth="yes"/>
      <point x="510" y="694"/>
      <point x="540" y="671"/>
    </contour>
    <contour>
      <point x="463" y="0" type="line"/>
      <point x="715" y="0" type="line"/>
      <point x="715" y="42" type="line"/>
      <point x="636" y="52" type="line"/>
      <point x="636" y="546" type="line"/>
      <point x="614" y="556" type="line"/>
      <point x="479" y="518" type="line"/>
      <point x="479" y="487" type="line"/>
      <point x="546" y="452" type="line"/>
      <point x="546" y="52" type="line"/>
      <point x="463" y="42" type="line"/>
    </contour>
  </outline>
</glyph>
<glyph name="circumflex.cap" format="1">
  <advance width="519"/>
  <outline>
    <contour>
      <point x="128" y="789" type="line"/>
      <point x="260" y="871" type="line"/>
      <point x="389" y="789" type="line"/>
      <point x="432" y="813" type="line"/>
      <point x="306" y="938" type="line"/>
      <point x="214" y="938" type="line"/>
      <point x="90" y="812" type="line"/>
    </contour>
  </outline>
</glyph>
<glyph name="uni0926094D" format="1">
  <advance width="578"/>
  <outline>
    <contour>
      <point x="767" y="-284" type="line"/>
      <point x="635" y="-157"/>
      <point x="488" y="-79"/>
      <point x="420" y="-79" type="curve" smooth="yes"/>
      <point x="376" y="-79"/>
      <point x="349" y="-102"/>
      <point x="349" y="-142" type="curve" smooth="yes"/>
      <point x="349" y="-169"/>
      <point x="365" y="-197"/>
      <point x="384" y="-212" type="curve"/>
      <point x="516" y="-172" type="line"/>
      <point x="590" y="-194"/>
      <point x="648" y="-226"/>
      <point x="739" y="-308" type="curve"/>
    </contour>
    <component base="dadeva"/>
  </outline>
</glyph>
<glyph name="uni0926094D0928" format="1">
  <advance width="564"/>
  <outline>
    <contour>
      <point x="92" y="27" type="line" smooth="yes"/>
      <point x="43" y="8"/>
      <point x="12" y="-13"/>
      <point x="12" y="-47" type="curve" smooth="yes"/>
      <point x="12" y="-94"/>
      <point x="54" y="-130"/>
      <point x="97" y="-130" type="curve" smooth="yes"/>
      <point x="124" y="-130"/>
      <point x="147" y="-124"/>
      <point x="165" y="-107" type="curve"/>
      <point x="131" y="-44" type="line"/>
      <point x="378" y="76" type="line"/>
      <point x="472" y="-145" type="line"/>
      <point x="536" y="-112" type="line"/>
      <point x="419" y="94" type="line"/>
      <point x="464" y="118"/>
      <point x="484" y="153"/>
      <point x="484" y="191" type="curve" smooth="yes"/>
      <point x="484" y="242"/>
      <point x="443" y="290"/>
      <point x="386" y="290" type="curve" smooth="yes"/>
      <point x="365" y="290"/>
      <point x="330" y="281"/>
      <point x="301" y="257" type="curve"/>
      <point x="345" y="154" type="line"/>
      <point x="331" y="152"/>
      <point x="315" y="150"/>
      <point x="297" y="150" type="curve" smooth="yes"/>
      <point x="248" y="150"/>
      <point x="115" y="182"/>
      <point x="115" y="290" type="curve" smooth="yes"/>
      <point x="115" y="374"/>
      <point x="171" y="417"/>
      <point x="287" y="417" type="curve" smooth="yes"/>
      <point x="412" y="417" type="line"/>
      <point x="412" y="575" type="line"/>
      <point x="564" y="575" type="line"/>
      <point x="564" y="590" type="line"/>
      <point x="533" y="650" type="line"/>
      <point x="-31" y="650" type="line"/>
      <point x="-31" y="635" type="line"/>
      <point x="0" y="575" type="line"/>
      <point x="325" y="576" type="line"/>
      <point x="325" y="497" type="line"/>
      <point x="283" y="497" type="line" smooth="yes"/>
      <point x="130" y="497"/>
      <point x="66" y="451"/>
      <point x="66" y="317" type="curve" smooth="yes"/>
      <point x="66" y="198"/>
      <point x="165" y="116"/>
      <point x="251" y="86" type="curve"/>
    </contour>
    <contour>
      <point x="368" y="650" type="move" name="top"/>
    </contour>
    <contour>
      <point x="536" y="0" type="move" name="bottom"/>
    </contour>
  </outline>
</glyph>
<glyph name="uni0922094D0922" format="1">
  <advance width="610"/>
  <outline>
    <contour>
      <point x="233" y="173" type="line"/>
      <point x="174" y="162"/>
      <point x="122" y="121"/>
      <point x="120" y="24" type="curve" smooth="yes"/>
      <point x="120" y="-95"/>
      <point x="263" y="-219"/>
      <point x="389" y="-219" type="curve" smooth="yes"/>
      <point x="490" y="-219"/>
      <point x="554" y="-144"/>
      <point x="554" y="-99" type="curve" smooth="yes"/>
      <point x="554" y="-27"/>
      <point x="489" y="35"/>
      <point x="407" y="35" type="curve" smooth="yes"/>
      <point x="357" y="35"/>
      <point x="289" y="-3"/>
      <point x="289" y="-65" type="curve" smooth="yes"/>
      <point x="289" y="-92"/>
      <point x="297" y="-115"/>
      <point x="311" y="-141" type="curve"/>
      <point x="265" y="-129"/>
      <point x="197" y="-91"/>
      <point x="197" y="-12" type="curve" smooth="yes"/>
      <point x="197" y="81"/>
      <point x="282" y="145"/>
      <point x="340" y="111" type="curve" smooth="yes"/>
    </contour>
    <contour>
      <point x="355" y="-66"/>
      <point x="390" y="-22"/>
      <point x="440" y="-22" type="curve" smooth="yes"/>
      <point x="474" y="-22"/>
      <point x="492" y="-45"/>
      <point x="492" y="-72" type="curve" smooth="yes"/>
      <point x="492" y="-107"/>
      <point x="454" y="-146"/>
      <point x="361" y="-148" type="curve"/>
      <point x="357" y="-136"/>
      <point x="355" y="-121"/>
      <point x="355" y="-104" type="curve" smooth="yes"/>
    </contour>
    <contour>
      <point x="-31" y="650" type="line"/>
      <point x="-31" y="634" type="line"/>
      <point x="0" y="575" type="line"/>
      <point x="370" y="575" type="line"/>
      <point x="370" y="495" type="line"/>
      <point x="213" y="495" type="line" smooth="yes"/>
      <point x="159" y="495"/>
      <point x="123" y="467"/>
      <point x="123" y="409" type="curve" smooth="yes"/>
      <point x="123" y="357"/>
      <point x="247" y="264"/>
      <point x="304" y="264" type="curve" smooth="yes"/>
      <point x="344" y="264"/>
      <point x="395" y="289"/>
      <point x="449" y="289" type="curve"/>
      <point x="466" y="279"/>
      <point x="471" y="251"/>
      <point x="471" y="241" type="curve" smooth="yes"/>
      <point x="471" y="198"/>
      <point x="423" y="169"/>
      <point x="350" y="169" type="curve" smooth="yes"/>
      <point x="242" y="169"/>
      <point x="160" y="204"/>
      <point x="54" y="328" type="curve"/>
      <point x="17" y="291" type="line"/>
      <point x="140" y="155"/>
      <point x="265" y="102"/>
      <point x="380" y="102" type="curve" smooth="yes"/>
      <point x="499" y="102"/>
      <point x="543" y="162"/>
      <point x="543" y="218" type="curve" smooth="yes"/>
      <point x="543" y="263"/>
      <point x="466" y="355"/>
      <point x="408" y="355" type="curve" smooth="yes"/>
      <point x="369" y="355"/>
      <point x="299" y="330"/>
      <point x="257" y="330" type="curve" smooth="yes"/>
      <point x="237" y="330"/>
      <point x="208" y="353"/>
      <point x="208" y="375" type="curve" smooth="yes"/>
      <point x="208" y="395"/>
      <point x="218" y="425"/>
      <point x="245" y="425" type="curve" smooth="yes"/>
      <point x="459" y="425" type="line"/>
      <point x="459" y="575" type="line"/>
      <point x="610" y="575" type="line"/>
      <point x="610" y="590" type="line"/>
      <point x="578" y="650" type="line"/>
    </contour>
    <contour>
      <point x="414" y="650" type="move" name="top"/>
    </contour>
    <contour>
      <point x="376" y="-183" type="move" name="bottom"/>
    </contour>
  </outline>
</glyph>
<glyph name="dotaccent.cap" format="1">
  <advance width="280"/>
  <outline>
    <contour>
      <point x="136" y="806" type="curve" smooth="yes"/>
      <point x="172" y="806"/>
      <point x="209" y="834"/>
      <point x="209" y="877" type="curve" smooth="yes"/>
      <point x="209" y="910"/>
      <point x="190" y="938"/>
      <point x="147" y="938" type="curve" smooth="yes"/>
      <point x="112" y="938"/>
      <point x="74" y="907"/>
      <point x="74" y="866" type="curve" smooth="yes"/>
      <point x="74" y="829"/>
      <point x="104" y="806"/>
    </contour>
  </outline>
</glyph>
<glyph name="uni0917094D0930" format="1">
  <advance width="628"/>
  <outline>
    <contour>
      <point x="182" y="-27" type="line"/>
      <point x="427" y="180" type="line"/>
      <point x="430" y="178" type="line"/>
      <point x="427" y="0" type="line"/>
      <point x="502" y="-42" type="line"/>
      <point x="518" y="-42" type="line"/>
      <point x="518" y="575" type="line"/>
      <point x="628" y="575" type="line"/>
      <point x="628" y="590" type="line"/>
      <point x="596" y="650" type="line"/>
      <point x="-31" y="650" type="line"/>
      <point x="-31" y="634" type="line"/>
      <point x="0" y="575" type="line"/>
      <point x="429" y="575" type="line"/>
      <point x="429" y="279" type="line"/>
      <point x="125" y="41" type="line"/>
    </contour>
    <contour>
      <point x="143" y="383" type="line"/>
      <point x="45" y="396" type="line"/>
      <point x="41" y="385"/>
      <point x="39" y="371"/>
      <point x="39" y="355" type="curve" smooth="yes"/>
      <point x="39" y="311"/>
      <point x="73" y="232"/>
      <point x="153" y="232" type="curve" smooth="yes"/>
      <point x="220" y="232"/>
      <point x="231" y="302"/>
      <point x="231" y="338" type="curve" smooth="yes"/>
      <point x="231" y="419"/>
      <point x="225" y="533"/>
      <point x="220" y="610" type="curve"/>
      <point x="154" y="629" type="line"/>
    </contour>
    <contour>
      <point x="473" y="650" type="move" name="top"/>
    </contour>
    <contour>
      <point x="473" y="0" type="move" name="bottom"/>
    </contour>
  </outline>
</glyph>
<glyph name="gadeva_nadeva" format="1">
  <advance width="628"/>
  <outline>
    <contour>
      <point x="-31" y="650" type="line"/>
      <point x="-31" y="634" type="line"/>
      <point x="0" y="575" type="line"/>
      <point x="429" y="575" type="line"/>
      <point x="427" y="0" type="line"/>
      <point x="502" y="-42" type="line"/>
      <point x="518" y="-42" type="line"/>
      <point x="518" y="575" type="line"/>
      <point x="628" y="575" type="line"/>
      <point x="628" y="590" type="line"/>
      <point x="596" y="650" type="line"/>
    </contour>
    <contour>
      <point x="365" y="235"/>
      <point x="242" y="151"/>
      <point x="192" y="115" type="curve" smooth="yes"/>
      <point x="157" y="90"/>
      <point x="126" y="61"/>
      <point x="126" y="24" type="curve" smooth="yes"/>
      <point x="126" y="-10"/>
      <point x="157" y="-64"/>
      <point x="217" y="-64" type="curve" smooth="yes"/>
      <point x="255" y="-64"/>
      <point x="291" y="-43"/>
      <point x="313" y="-18" type="curve"/>
      <point x="258" y="47" type="line"/>
      <point x="426" y="193" type="line"/>
      <point x="429" y="191" type="line"/>
      <point x="430" y="280" type="line"/>
    </contour>
    <contour>
      <point x="143" y="383" type="line"/>
      <point x="45" y="396" type="line"/>
      <point x="41" y="385"/>
      <point x="39" y="371"/>
      <point x="39" y="355" type="curve" smooth="yes"/>
      <point x="39" y="311"/>
      <point x="73" y="232"/>
      <point x="153" y="232" type="curve" smooth="yes"/>
      <point x="220" y="232"/>
      <point x="231" y="302"/>
      <point x="231" y="338" type="curve" smooth="yes"/>
      <point x="231" y="419"/>
      <point x="225" y="533"/>
      <point x="220" y="610" type="curve"/>
      <point x="154" y="629" type="line"/>
    </contour>
    <contour>
      <point x="474" y="650" type="move" name="top"/>
    </contour>
    <contour>
      <point x="474" y="0" type="move" name="bottom"/>
    </contour>
  </outline>
</glyph>
<glyph name="grave.cap" format="1">
  <advance width="519"/>
  <outline>
    <contour>
      <point x="292" y="811" type="line"/>
      <point x="142" y="938" type="line"/>
      <point x="71" y="865" type="line"/>
      <point x="132" y="826"/>
      <point x="205" y="795"/>
      <point x="266" y="785" type="curve"/>
    </contour>
  </outline>
</glyph>
<glyph name="uni0939094D0932" format="1">
  <advance width="739"/>
  <outline>
    <contour>
      <point x="597" y="154"/>
      <point x="570" y="174"/>
      <point x="540" y="173" type="curve" smooth="yes"/>
      <point x="489" y="171"/>
      <point x="459" y="125"/>
      <point x="435" y="48" type="curve"/>
      <point x="502" y="20" type="line"/>
      <point x="522" y="79"/>
      <point x="531" y="111"/>
      <point x="566" y="111" type="curve" smooth="yes"/>
      <point x="585" y="111"/>
      <point x="603" y="98"/>
      <point x="617" y="82" type="curve"/>
      <point x="617" y="131" type="line"/>
    </contour>
    <contour>
      <point x="317" y="193"/>
      <point x="277" y="167"/>
      <point x="277" y="110" type="curve" smooth="yes"/>
      <point x="277" y="58"/>
      <point x="325" y="7"/>
      <point x="394" y="-38" type="curve"/>
      <point x="408" y="-19" type="line"/>
      <point x="350" y="22"/>
      <point x="336" y="49"/>
      <point x="336" y="73" type="curve" smooth="yes"/>
      <point x="336" y="103"/>
      <point x="354" y="114"/>
      <point x="381" y="114" type="curve" smooth="yes"/>
      <point x="415" y="114"/>
      <point x="459" y="85"/>
      <point x="483" y="45" type="curve"/>
      <point x="492" y="75" type="line"/>
      <point x="447" y="140"/>
      <point x="402" y="193"/>
      <point x="350" y="193" type="curve" smooth="yes"/>
    </contour>
    <contour>
      <point x="611" y="404" type="line"/>
      <point x="611" y="575" type="line"/>
      <point x="739" y="575" type="line"/>
      <point x="739" y="590" type="line"/>
      <point x="708" y="650" type="line"/>
      <point x="-31" y="650" type="line"/>
      <point x="-31" y="634" type="line"/>
      <point x="0" y="575" type="line"/>
      <point x="523" y="575" type="line"/>
      <point x="523" y="483" type="line"/>
      <point x="161" y="483" type="line" smooth="yes"/>
      <point x="99" y="483"/>
      <point x="63" y="460"/>
      <point x="63" y="386" type="curve" smooth="yes"/>
      <point x="63" y="340"/>
      <point x="96" y="283"/>
      <point x="131" y="242" type="curve"/>
      <point x="107" y="216"/>
      <point x="96" y="183"/>
      <point x="96" y="152" type="curve" smooth="yes"/>
      <point x="96" y="16"/>
      <point x="235" y="-78"/>
      <point x="356" y="-150" type="curve"/>
      <point x="379" y="-117" type="line"/>
      <point x="247" y="-28"/>
      <point x="184" y="31"/>
      <point x="184" y="124" type="curve" smooth="yes"/>
      <point x="184" y="205"/>
      <point x="261" y="275"/>
      <point x="419" y="276" type="curve" smooth="yes"/>
      <point x="538" y="274"/>
      <point x="616" y="215"/>
      <point x="616" y="165" type="curve" smooth="yes"/>
      <point x="616" y="-34" type="line"/>
      <point x="677" y="-68" type="line"/>
      <point x="692" y="-68" type="line"/>
      <point x="692" y="122" type="line" smooth="yes"/>
      <point x="692" y="197"/>
      <point x="557" y="330"/>
      <point x="392" y="331" type="curve" smooth="yes"/>
      <point x="289" y="327"/>
      <point x="217" y="307"/>
      <point x="169" y="275" type="curve"/>
      <point x="142" y="301"/>
      <point x="126" y="334"/>
      <point x="126" y="358" type="curve" smooth="yes"/>
      <point x="126" y="385"/>
      <point x="141" y="404"/>
      <point x="184" y="404" type="curve" smooth="yes"/>
    </contour>
    <contour>
      <point x="568" y="650" type="move" name="top"/>
    </contour>
    <contour>
      <point x="650" y="-100" type="move" name="bottom"/>
    </contour>
  </outline>
</glyph>
<glyph name="uni0939094D0935" format="1">
  <advance width="668"/>
  <outline>
    <contour>
      <point x="-31" y="650" type="line"/>
      <point x="-31" y="634" type="line"/>
      <point x="0" y="575" type="line"/>
      <point x="434" y="575" type="line"/>
      <point x="434" y="483" type="line"/>
      <point x="161" y="483" type="line" smooth="yes"/>
      <point x="99" y="483"/>
      <point x="63" y="460"/>
      <point x="63" y="386" type="curve" smooth="yes"/>
      <point x="63" y="340"/>
      <point x="96" y="283"/>
      <point x="131" y="242" type="curve"/>
      <point x="107" y="216"/>
      <point x="96" y="183"/>
      <point x="96" y="152" type="curve" smooth="yes"/>
      <point x="96" y="16"/>
      <point x="235" y="-78"/>
      <point x="356" y="-150" type="curve"/>
      <point x="379" y="-117" type="line"/>
      <point x="247" y="-28"/>
      <point x="184" y="31"/>
      <point x="184" y="124" type="curve" smooth="yes"/>
      <point x="184" y="202"/>
      <point x="245" y="269"/>
      <point x="369" y="269" type="curve" smooth="yes"/>
      <point x="465" y="269"/>
      <point x="527" y="213"/>
      <point x="528" y="165" type="curve" smooth="yes"/>
      <point x="528" y="-34" type="line"/>
      <point x="589" y="-68" type="line"/>
      <point x="604" y="-68" type="line"/>
      <point x="604" y="122" type="line" smooth="yes"/>
      <point x="603" y="195"/>
      <point x="486" y="324"/>
      <point x="342" y="324" type="curve" smooth="yes"/>
      <point x="262" y="324"/>
      <point x="206" y="305"/>
      <point x="169" y="275" type="curve"/>
      <point x="142" y="301"/>
      <point x="126" y="334"/>
      <point x="126" y="358" type="curve" smooth="yes"/>
      <point x="126" y="385"/>
      <point x="141" y="404"/>
      <point x="184" y="404" type="curve" smooth="yes"/>
      <point x="522" y="404" type="line"/>
      <point x="522" y="575" type="line"/>
      <point x="668" y="575" type="line"/>
      <point x="668" y="590" type="line"/>
      <point x="636" y="650" type="line"/>
    </contour>
    <contour>
      <point x="321" y="216"/>
      <point x="257" y="169"/>
      <point x="257" y="94" type="curve" smooth="yes"/>
      <point x="257" y="17"/>
      <point x="329" y="-37"/>
      <point x="403" y="-37" type="curve" smooth="yes"/>
      <point x="459" y="-37"/>
      <point x="502" y="2"/>
      <point x="539" y="29" type="curve"/>
      <point x="537" y="116" type="line"/>
      <point x="502" y="69"/>
      <point x="435" y="24"/>
      <point x="377" y="24" type="curve" smooth="yes"/>
      <point x="329" y="24"/>
      <point x="297" y="46"/>
      <point x="297" y="70" type="curve" smooth="yes"/>
      <point x="297" y="107"/>
      <point x="356" y="140"/>
      <point x="430" y="141" type="curve" smooth="yes"/>
      <point x="470" y="139"/>
      <point x="519" y="125"/>
      <point x="538" y="91" type="curve"/>
      <point x="537" y="144" type="line"/>
      <point x="513" y="171"/>
      <point x="469" y="216"/>
      <point x="404" y="216" type="curve" smooth="yes"/>
    </contour>
    <contour>
      <point x="473" y="650" type="move" name="top"/>
    </contour>
    <contour>
      <point x="561" y="-100" type="move" name="bottom"/>
    </contour>
  </outline>
</glyph>
<glyph name="hadeva_rvocalicvowelsigndeva.blws" format="1">
  <advance width="602"/>
  <outline>
    <contour>
      <point x="-31" y="650" type="line"/>
      <point x="-31" y="634" type="line"/>
      <point x="0" y="575" type="line"/>
      <point x="390" y="575" type="line"/>
      <point x="390" y="503" type="line"/>
      <point x="161" y="503" type="line" smooth="yes"/>
      <point x="99" y="503"/>
      <point x="63" y="489"/>
      <point x="63" y="415" type="curve" smooth="yes"/>
      <point x="63" y="349"/>
      <point x="110" y="303"/>
      <point x="160" y="262" type="curve"/>
      <point x="198" y="295" type="line"/>
      <point x="159" y="320"/>
      <point x="126" y="353"/>
      <point x="126" y="378" type="curve" smooth="yes"/>
      <point x="126" y="404"/>
      <point x="141" y="424"/>
      <point x="184" y="424" type="curve" smooth="yes"/>
      <point x="478" y="424" type="line"/>
      <point x="478" y="575" type="line"/>
      <point x="602" y="575" type="line"/>
      <point x="602" y="590" type="line"/>
      <point x="570" y="650" type="line"/>
    </contour>
    <contour>
      <point x="511" y="170"/>
      <point x="534" y="185"/>
      <point x="534" y="226" type="curve" smooth="yes"/>
      <point x="534" y="275"/>
      <point x="437" y="349"/>
      <point x="327" y="349" type="curve" smooth="yes"/>
      <point x="185" y="349"/>
      <point x="76" y="258"/>
      <point x="76" y="133" type="curve" smooth="yes"/>
      <point x="76" y="-9"/>
      <point x="264" y="-125"/>
      <point x="429" y="-191" type="curve"/>
      <point x="447" y="-156" type="line"/>
      <point x="254" y="-65"/>
      <point x="165" y="4"/>
      <point x="165" y="104" type="curve" smooth="yes"/>
      <point x="165" y="215"/>
      <point x="262" y="295"/>
      <point x="354" y="295" type="curve" smooth="yes"/>
      <point x="418" y="295"/>
      <point x="459" y="276"/>
      <point x="459" y="254" type="curve" smooth="yes"/>
      <point x="459" y="237"/>
      <point x="451" y="230"/>
      <point x="419" y="224" type="curve" smooth="yes"/>
      <point x="321" y="206"/>
      <point x="246" y="157"/>
      <point x="246" y="99" type="curve" smooth="yes"/>
      <point x="246" y="25"/>
      <point x="351" y="-52"/>
      <point x="425" y="-52" type="curve" smooth="yes"/>
      <point x="452" y="-52"/>
      <point x="491" y="-40"/>
      <point x="518" y="-25" type="curve"/>
      <point x="467" y="50" type="line"/>
      <point x="440" y="34"/>
      <point x="399" y="23"/>
      <point x="372" y="23" type="curve" smooth="yes"/>
      <point x="330" y="23"/>
      <point x="308" y="54"/>
      <point x="308" y="76" type="curve" smooth="yes"/>
      <point x="308" y="121"/>
      <point x="372" y="140"/>
      <point x="457" y="158" type="curve" smooth="yes"/>
    </contour>
    <contour>
      <point x="434" y="650" type="move" name="top"/>
    </contour>
    <contour>
      <point x="429" y="-191" type="move" name="bottom"/>
    </contour>
  </outline>
</glyph>
<glyph name="uni091C094D" format="1">
  <advance width="482"/>
  <outline>
    <contour>
      <point x="-31" y="650" type="line"/>
      <point x="-31" y="634" type="line"/>
      <point x="0" y="575" type="line"/>
      <point x="513" y="575" type="line"/>
      <point x="513" y="590" type="line"/>
      <point x="482" y="650" type="line"/>
    </contour>
    <contour>
      <point x="20" y="393" type="line"/>
      <point x="65" y="270"/>
      <point x="162" y="88"/>
      <point x="305" y="88" type="curve" smooth="yes"/>
      <point x="374" y="88"/>
      <point x="432" y="132"/>
      <point x="432" y="215" type="curve" smooth="yes"/>
      <point x="432" y="283"/>
      <point x="367" y="341"/>
      <point x="284" y="383" type="curve"/>
      <point x="271" y="350" type="line"/>
      <point x="305" y="328"/>
      <point x="354" y="280"/>
      <point x="354" y="235" type="curve" smooth="yes"/>
      <point x="354" y="195"/>
      <point x="327" y="174"/>
      <point x="286" y="174" type="curve" smooth="yes"/>
      <point x="180" y="174"/>
      <point x="100" y="321"/>
      <point x="63" y="410" type="curve"/>
    </contour>
    <contour>
      <point x="284" y="383" type="line"/>
      <point x="367" y="316" type="line"/>
      <point x="610" y="316" type="line"/>
      <point x="637" y="383" type="line"/>
    </contour>
  </outline>
</glyph>
<glyph name="uni0915094D" format="1">
  <advance width="603"/>
  <outline>
    <contour>
      <point x="-31" y="650" type="line"/>
      <point x="-31" y="634" type="line"/>
      <point x="0" y="575" type="line"/>
      <point x="401" y="575" type="line"/>
      <point x="401" y="185" type="line"/>
      <point x="403" y="184" type="line"/>
      <point x="399" y="0" type="line"/>
      <point x="473" y="-42" type="line"/>
      <point x="489" y="-42" type="line"/>
      <point x="489" y="575" type="line"/>
      <point x="634" y="575" type="line"/>
      <point x="634" y="590" type="line"/>
      <point x="603" y="650" type="line"/>
    </contour>
    <contour>
      <point x="114" y="464"/>
      <point x="54" y="378"/>
      <point x="54" y="293" type="curve" smooth="yes"/>
      <point x="54" y="178"/>
      <point x="134" y="111"/>
      <point x="233" y="111" type="curve" smooth="yes"/>
      <point x="316" y="111"/>
      <point x="365" y="157"/>
      <point x="423" y="206" type="curve" smooth="yes"/>
      <point x="471" y="249" type="line"/>
      <point x="518" y="289"/>
      <point x="566" y="325"/>
      <point x="620" y="325" type="curve" smooth="yes"/>
      <point x="644" y="325"/>
      <point x="669" y="314"/>
      <point x="685" y="296" type="curve"/>
      <point x="722" y="341" type="line"/>
      <point x="695" y="376"/>
      <point x="655" y="399"/>
      <point x="594" y="399" type="curve" smooth="yes"/>
      <point x="545" y="399"/>
      <point x="497" y="368"/>
      <point x="464" y="340" type="curve" smooth="yes"/>
      <point x="423" y="305" type="line"/>
      <point x="377" y="253"/>
      <point x="294" y="188"/>
      <point x="199" y="188" type="curve" smooth="yes"/>
      <point x="155" y="188"/>
      <point x="102" y="217"/>
      <point x="102" y="269" type="curve" smooth="yes"/>
      <point x="102" y="342"/>
      <point x="181" y="374"/>
      <point x="243" y="374" type="curve" smooth="yes"/>
      <point x="312" y="374"/>
      <point x="382" y="319"/>
      <point x="408" y="276" type="curve"/>
      <point x="414" y="315" type="line"/>
      <point x="375" y="383"/>
      <point x="321" y="464"/>
      <point x="210" y="464" type="curve" smooth="yes"/>
    </contour>
  </outline>
</glyph>
<glyph name="uni0915094D0932" format="1">
  <advance width="1352"/>
  <outline>
    <component base="uni0915094D"/>
    <component base="uni0932" xOffset="603"/>
    <contour>
      <point x="1199" y="650" type="move" name="top"/>
    </contour>
    <contour>
      <point x="1199" y="0" type="move" name="bottom"/>
    </contour>
  </outline>
</glyph>
<glyph name="uni0915094D0935" format="1">
  <advance width="851"/>
  <outline>
    <contour>
      <point x="851" y="575" type="line"/>
      <point x="851" y="590" type="line"/>
      <point x="820" y="650" type="line"/>
      <point x="-31" y="650" type="line"/>
      <point x="-31" y="634" type="line"/>
      <point x="0" y="575" type="line"/>
      <point x="401" y="575" type="line"/>
      <point x="401" y="412" type="line"/>
      <point x="399" y="412" type="line"/>
      <point x="360" y="459"/>
      <point x="302" y="519"/>
      <point x="218" y="519" type="curve" smooth="yes"/>
      <point x="132" y="519"/>
      <point x="71" y="433"/>
      <point x="71" y="367" type="curve" smooth="yes"/>
      <point x="71" y="319"/>
      <point x="91" y="278"/>
      <point x="121" y="251" type="curve"/>
      <point x="103" y="225"/>
      <point x="90" y="197"/>
      <point x="90" y="172" type="curve" smooth="yes"/>
      <point x="90" y="103"/>
      <point x="170" y="28"/>
      <point x="251" y="28" type="curve" smooth="yes"/>
      <point x="308" y="28"/>
      <point x="353" y="57"/>
      <point x="399" y="85" type="curve"/>
      <point x="402" y="83" type="line"/>
      <point x="399" y="0" type="line"/>
      <point x="473" y="-42" type="line"/>
      <point x="489" y="-42" type="line"/>
      <point x="489" y="334" type="line"/>
      <point x="530" y="365"/>
      <point x="604" y="416"/>
      <point x="657" y="416" type="curve" smooth="yes"/>
      <point x="708" y="416"/>
      <point x="748" y="374"/>
      <point x="748" y="317" type="curve" smooth="yes"/>
      <point x="748" y="259"/>
      <point x="691" y="183"/>
      <point x="664" y="153" type="curve"/>
      <point x="732" y="82" type="line"/>
      <point x="765" y="132"/>
      <point x="798" y="237"/>
      <point x="798" y="293" type="curve" smooth="yes"/>
      <point x="798" y="408"/>
      <point x="745" y="490"/>
      <point x="631" y="490" type="curve" smooth="yes"/>
      <point x="572" y="490"/>
      <point x="513" y="447"/>
      <point x="489" y="427" type="curve"/>
      <point x="489" y="575" type="line"/>
    </contour>
    <contour>
      <point x="401" y="357" type="line"/>
      <point x="363" y="322"/>
      <point x="277" y="272"/>
      <point x="207" y="272" type="curve" smooth="yes"/>
      <point x="168" y="272"/>
      <point x="120" y="300"/>
      <point x="120" y="344" type="curve" smooth="yes"/>
      <point x="120" y="407"/>
      <point x="193" y="439"/>
      <point x="252" y="439" type="curve" smooth="yes"/>
      <point x="315" y="439"/>
      <point x="375" y="395"/>
      <point x="401" y="359" type="curve"/>
    </contour>
    <contour>
      <point x="299" y="204"/>
      <point x="353" y="247"/>
      <point x="399" y="270" type="curve"/>
      <point x="401" y="269" type="line"/>
      <point x="401" y="173" type="line"/>
      <point x="358" y="139"/>
      <point x="273" y="96"/>
      <point x="217" y="96" type="curve" smooth="yes"/>
      <point x="178" y="96"/>
      <point x="147" y="114"/>
      <point x="147" y="148" type="curve" smooth="yes"/>
      <point x="147" y="177"/>
      <point x="162" y="198"/>
      <point x="183" y="214" type="curve"/>
      <point x="201" y="207"/>
      <point x="221" y="204"/>
      <point x="241" y="204" type="curve" smooth="yes"/>
    </contour>
    <contour>
      <point x="445" y="650" type="move" name="top"/>
    </contour>
    <contour>
      <point x="445" y="0" type="move" name="bottom"/>
    </contour>
  </outline>
</glyph>
<glyph name="uni0932094D" format="1">
  <advance width="521"/>
  <outline>
    <contour>
      <point x="381" y="432"/>
      <point x="318" y="316"/>
      <point x="296" y="212" type="curve"/>
      <point x="368" y="169" type="line"/>
      <point x="386" y="249"/>
      <point x="430" y="372"/>
      <point x="501" y="372" type="curve" smooth="yes"/>
      <point x="545" y="372"/>
      <point x="574" y="329"/>
      <point x="600" y="287" type="curve"/>
      <point x="623" y="322" type="line"/>
      <point x="587" y="392"/>
      <point x="532" y="435"/>
      <point x="474" y="434" type="curve" smooth="yes"/>
    </contour>
    <contour>
      <point x="-31" y="650" type="line"/>
      <point x="-31" y="634" type="line"/>
      <point x="0" y="575" type="line"/>
      <point x="553" y="575" type="line"/>
      <point x="553" y="590" type="line"/>
      <point x="521" y="650" type="line"/>
    </contour>
    <contour>
      <point x="105" y="454"/>
      <point x="45" y="389"/>
      <point x="45" y="303" type="curve" smooth="yes"/>
      <point x="45" y="139"/>
      <point x="166" y="20"/>
      <point x="256" y="-58" type="curve"/>
      <point x="287" y="-25" type="line"/>
      <point x="184" y="67"/>
      <point x="124" y="163"/>
      <point x="124" y="265" type="curve" smooth="yes"/>
      <point x="124" y="331"/>
      <point x="168" y="375"/>
      <point x="223" y="375" type="curve" smooth="yes"/>
      <point x="260" y="375"/>
      <point x="307" y="350"/>
      <point x="336" y="311" type="curve"/>
      <point x="358" y="352" type="line"/>
      <point x="315" y="409"/>
      <point x="254" y="454"/>
      <point x="186" y="454" type="curve" smooth="yes"/>
    </contour>
  </outline>
</glyph>
<glyph name="uni092E094D" format="1">
  <advance width="385"/>
  <outline>
    <contour>
      <point x="115" y="602" type="line"/>
      <point x="115" y="236" type="line"/>
      <point x="473" y="236" type="line"/>
      <point x="473" y="311" type="line"/>
      <point x="31" y="311" type="line"/>
      <point x="24" y="233"/>
      <point x="74" y="146"/>
      <point x="135" y="146" type="curve"/>
      <point x="190" y="146"/>
      <point x="203" y="204"/>
      <point x="203" y="251" type="curve"/>
      <point x="203" y="602" type="line"/>
    </contour>
    <contour>
      <point x="-31" y="650" type="line"/>
      <point x="-31" y="634" type="line"/>
      <point x="0" y="575" type="line"/>
      <point x="416" y="575" type="line"/>
      <point x="416" y="590" type="line"/>
      <point x="385" y="650" type="line"/>
    </contour>
  </outline>
</glyph>
<glyph name="uni092E094D0930" format="1">
  <advance width="642"/>
  <outline>
    <contour>
      <point x="-31" y="650" type="line"/>
      <point x="-31" y="634" type="line"/>
      <point x="0" y="575" type="line"/>
      <point x="444" y="575" type="line"/>
      <point x="444" y="-1" type="line"/>
      <point x="516" y="-42" type="line"/>
      <point x="532" y="-42" type="line"/>
      <point x="532" y="575" type="line"/>
      <point x="641" y="575" type="line"/>
      <point x="641" y="590" type="line"/>
      <point x="609" y="650" type="line"/>
    </contour>
    <contour>
      <point x="131" y="9" type="line"/>
      <point x="192" y="-58" type="line"/>
      <point x="494" y="244" type="line"/>
      <point x="439" y="293" type="line"/>
    </contour>
    <contour>
      <point x="115" y="602" type="line"/>
      <point x="115" y="264" type="line"/>
      <point x="473" y="264" type="line"/>
      <point x="473" y="339" type="line"/>
      <point x="31" y="339" type="line"/>
      <point x="24" y="261"/>
      <point x="74" y="174"/>
      <point x="135" y="174" type="curve"/>
      <point x="190" y="174"/>
      <point x="203" y="232"/>
      <point x="203" y="279" type="curve"/>
      <point x="203" y="602" type="line"/>
    </contour>
    <contour>
      <point x="489" y="650" type="move" name="top"/>
    </contour>
    <contour>
      <point x="489" y="0" type="move" name="bottom"/>
    </contour>
  </outline>
</glyph>
<glyph name="uni0919094D0915094D0937" format="1">
  <advance width="704"/>
  <outline>
    <contour>
      <point x="-31" y="650" type="line"/>
      <point x="-31" y="634" type="line"/>
      <point x="0" y="575" type="line"/>
      <point x="366" y="575" type="line"/>
      <point x="366" y="495" type="line"/>
      <point x="213" y="495" type="line" smooth="yes"/>
      <point x="159" y="495"/>
      <point x="123" y="468"/>
      <point x="123" y="413" type="curve" smooth="yes"/>
      <point x="123" y="363"/>
      <point x="226" y="269"/>
      <point x="264" y="269" type="curve" smooth="yes"/>
      <point x="302" y="269"/>
      <point x="359" y="298"/>
      <point x="420" y="298" type="curve"/>
      <point x="431" y="292"/>
      <point x="442" y="274"/>
      <point x="442" y="255" type="curve" smooth="yes"/>
      <point x="442" y="215"/>
      <point x="393" y="188"/>
      <point x="321" y="188" type="curve" smooth="yes"/>
      <point x="224" y="188"/>
      <point x="148" y="223"/>
      <point x="54" y="347" type="curve"/>
      <point x="17" y="310" type="line"/>
      <point x="131" y="174"/>
      <point x="239" y="125"/>
      <point x="348" y="121" type="curve"/>
      <point x="475" y="121"/>
      <point x="513" y="183"/>
      <point x="513" y="232" type="curve" smooth="yes"/>
      <point x="513" y="277"/>
      <point x="436" y="364"/>
      <point x="379" y="364" type="curve" smooth="yes"/>
      <point x="345" y="364"/>
      <point x="253" y="339"/>
      <point x="237" y="339" type="curve" smooth="yes"/>
      <point x="225" y="339"/>
      <point x="208" y="355"/>
      <point x="208" y="379" type="curve" smooth="yes"/>
      <point x="208" y="397"/>
      <point x="218" y="425"/>
      <point x="245" y="425" type="curve" smooth="yes"/>
      <point x="455" y="425" type="line"/>
      <point x="455" y="575" type="line"/>
      <point x="704" y="575" type="line"/>
      <point x="704" y="590" type="line"/>
      <point x="671" y="650" type="line"/>
    </contour>
    <contour>
      <point x="179" y="-141"/>
      <point x="164" y="-146"/>
      <point x="136" y="-146" type="curve" smooth="yes"/>
      <point x="96" y="-146"/>
      <point x="70" y="-121"/>
      <point x="70" y="-103" type="curve" smooth="yes"/>
      <point x="70" y="-2"/>
      <point x="263" y="-29"/>
      <point x="263" y="79" type="curve" smooth="yes"/>
      <point x="263" y="132"/>
      <point x="181" y="207"/>
      <point x="133" y="207" type="curve" smooth="yes"/>
      <point x="81" y="207"/>
      <point x="17" y="166"/>
      <point x="17" y="117" type="curve" smooth="yes"/>
      <point x="17" y="35"/>
      <point x="242" y="-60"/>
      <point x="329" y="-60" type="curve" smooth="yes"/>
      <point x="364" y="-60"/>
      <point x="401" y="-45"/>
      <point x="426" y="-28" type="curve"/>
      <point x="427" y="-28" type="line"/>
      <point x="427" y="56" type="line"/>
      <point x="393" y="28"/>
      <point x="342" y="1"/>
      <point x="289" y="1" type="curve" smooth="yes"/>
      <point x="173" y="1"/>
      <point x="87" y="50"/>
      <point x="87" y="99" type="curve" smooth="yes"/>
      <point x="87" y="127"/>
      <point x="122" y="151"/>
      <point x="157" y="148" type="curve" smooth="yes"/>
      <point x="177" y="146"/>
      <point x="205" y="134"/>
      <point x="205" y="97" type="curve" smooth="yes"/>
      <point x="205" y="15"/>
      <point x="-2" y="19"/>
      <point x="-2" y="-71" type="curve" smooth="yes"/>
      <point x="-2" y="-140"/>
      <point x="116" y="-205"/>
      <point x="171" y="-205" type="curve" smooth="yes"/>
      <point x="209" y="-205"/>
      <point x="292" y="-179"/>
      <point x="293" y="-131" type="curve" smooth="yes"/>
      <point x="291" y="-100"/>
      <point x="272" y="-78"/>
      <point x="232" y="-77" type="curve" smooth="yes"/>
      <point x="222" y="-77"/>
      <point x="195" y="-82"/>
      <point x="179" y="-94" type="curve"/>
      <point x="264" y="-291" type="line"/>
      <point x="311" y="-268" type="line"/>
      <point x="228" y="-134" type="line"/>
      <point x="203" y="-133" type="line"/>
    </contour>
    <contour>
      <point x="530" y="391" type="line"/>
      <point x="607" y="313" type="line"/>
      <point x="684" y="392" type="line"/>
      <point x="606" y="470" type="line"/>
    </contour>
    <contour>
      <point x="421" y="167" type="line"/>
      <point x="421" y="-203" type="line"/>
      <point x="483" y="-237" type="line"/>
      <point x="498" y="-237" type="line"/>
      <point x="498" y="233" type="line"/>
    </contour>
    <contour>
      <point x="459" y="-205" type="move" name=" bottom"/>
    </contour>
    <contour>
      <point x="410" y="650" type="move" name="top"/>
    </contour>
  </outline>
</glyph>
<glyph name="uni0919094D0930" format="1">
  <advance width="713"/>
  <outline>
    <contour>
      <point x="291" y="-46" type="line"/>
      <point x="435" y="-191" type="line"/>
      <point x="483" y="-155" type="line"/>
      <point x="288" y="34" type="line"/>
      <point x="39" y="-124" type="line"/>
      <point x="110" y="-188" type="line"/>
    </contour>
    <component base="ngadeva"/>
  </outline>
</glyph>
<glyph name="uni091E094D0930" format="1">
  <advance width="772"/>
  <outline>
    <contour>
      <point x="-31" y="650" type="line"/>
      <point x="-31" y="634" type="line"/>
      <point x="0" y="575" type="line"/>
      <point x="575" y="575" type="line"/>
      <point x="575" y="403" type="line"/>
      <point x="554" y="386"/>
      <point x="515" y="377"/>
      <point x="480" y="377" type="curve" smooth="yes"/>
      <point x="469" y="377"/>
      <point x="459" y="378"/>
      <point x="452" y="380" type="curve"/>
      <point x="450" y="324" type="line"/>
      <point x="481" y="324" type="line"/>
      <point x="494" y="318"/>
      <point x="518" y="303"/>
      <point x="538" y="303" type="curve" smooth="yes"/>
      <point x="549" y="303"/>
      <point x="560" y="305"/>
      <point x="573" y="315" type="curve"/>
      <point x="575" y="315" type="line"/>
      <point x="575" y="-1" type="line"/>
      <point x="647" y="-42" type="line"/>
      <point x="663" y="-42" type="line"/>
      <point x="663" y="575" type="line"/>
      <point x="772" y="575" type="line"/>
      <point x="772" y="590" type="line"/>
      <point x="741" y="650" type="line"/>
    </contour>
    <contour>
      <point x="270" y="40" type="line"/>
      <point x="327" y="-28" type="line"/>
      <point x="573" y="137" type="line"/>
      <point x="606" y="116" type="line"/>
      <point x="584" y="233" type="line"/>
    </contour>
    <contour>
      <point x="264" y="490"/>
      <point x="224" y="472"/>
      <point x="184" y="445" type="curve"/>
      <point x="245" y="370" type="line"/>
      <point x="272" y="391"/>
      <point x="312" y="415"/>
      <point x="340" y="415" type="curve" smooth="yes"/>
      <point x="386" y="415"/>
      <point x="408" y="371"/>
      <point x="408" y="339" type="curve" smooth="yes"/>
      <point x="408" y="295"/>
      <point x="363" y="257"/>
      <point x="297" y="257" type="curve" smooth="yes"/>
      <point x="218" y="257"/>
      <point x="148" y="308"/>
      <point x="48" y="398" type="curve"/>
      <point x="14" y="370" type="line"/>
      <point x="122" y="252"/>
      <point x="228" y="173"/>
      <point x="326" y="173" type="curve" smooth="yes"/>
      <point x="427" y="173"/>
      <point x="480" y="249"/>
      <point x="480" y="315" type="curve"/>
      <point x="480" y="408"/>
      <point x="366" y="490"/>
      <point x="293" y="490" type="curve" smooth="yes"/>
    </contour>
    <contour>
      <point x="619" y="650" type="move" name="top"/>
    </contour>
    <contour>
      <point x="619" y="0" type="move" name="bottom"/>
    </contour>
  </outline>
</glyph>
<glyph name="uni092A094D0932" format="1">
  <advance width="657"/>
  <outline>
    <contour>
      <point x="420" y="183"/>
      <point x="357" y="152"/>
      <point x="330" y="104" type="curve"/>
      <point x="279" y="155"/>
      <point x="231" y="196"/>
      <point x="168" y="196" type="curve" smooth="yes"/>
      <point x="99" y="196"/>
      <point x="46" y="147"/>
      <point x="46" y="84" type="curve" smooth="yes"/>
      <point x="46" y="-10"/>
      <point x="128" y="-70"/>
      <point x="218" y="-140" type="curve"/>
      <point x="249" y="-107" type="line"/>
      <point x="146" y="-35"/>
      <point x="125" y="6"/>
      <point x="125" y="47" type="curve" smooth="yes"/>
      <point x="125" y="83"/>
      <point x="152" y="117"/>
      <point x="204" y="117" type="curve" smooth="yes"/>
      <point x="247" y="117"/>
      <point x="271" y="98"/>
      <point x="305" y="65" type="curve"/>
      <point x="294" y="46"/>
      <point x="285" y="24"/>
      <point x="277" y="3" type="curve"/>
      <point x="275" y="3"/>
      <point x="352" y="-44"/>
      <point x="352" y="-44" type="curve"/>
      <point x="359" y="17"/>
      <point x="399" y="129"/>
      <point x="508" y="129" type="curve" smooth="yes"/>
      <point x="534" y="129"/>
      <point x="555" y="108"/>
      <point x="555" y="70" type="curve" smooth="yes"/>
      <point x="555" y="21"/>
      <point x="506" y="-24"/>
      <point x="439" y="-84" type="curve"/>
      <point x="439" y="-84"/>
      <point x="517" y="-140"/>
      <point x="516" y="-139" type="curve"/>
      <point x="589" y="-64"/>
      <point x="629" y="-13"/>
      <point x="629" y="44" type="curve" smooth="yes"/>
      <point x="629" y="106"/>
      <point x="549" y="183"/>
      <point x="477" y="183" type="curve"/>
    </contour>
    <contour>
      <point x="657" y="575" type="line"/>
      <point x="657" y="590" type="line"/>
      <point x="626" y="650" type="line"/>
      <point x="-31" y="650" type="line"/>
      <point x="-31" y="634" type="line"/>
      <point x="0" y="575" type="line"/>
      <point x="87" y="575" type="line"/>
      <point x="87" y="439" type="line" smooth="yes"/>
      <point x="87" y="402"/>
      <point x="113" y="369"/>
      <point x="149" y="334" type="curve" smooth="yes"/>
      <point x="182" y="296"/>
      <point x="230" y="264"/>
      <point x="280" y="264" type="curve" smooth="yes"/>
      <point x="340" y="264"/>
      <point x="383" y="285"/>
      <point x="419" y="305" type="curve"/>
      <point x="421" y="305" type="line"/>
      <point x="421" y="136" type="line"/>
      <point x="508" y="161" type="line"/>
      <point x="508" y="575" type="line"/>
    </contour>
    <contour>
      <point x="226" y="346"/>
      <point x="176" y="352"/>
      <point x="176" y="424" type="curve" smooth="yes"/>
      <point x="176" y="575" type="line"/>
      <point x="421" y="575" type="line"/>
      <point x="421" y="404" type="line"/>
      <point x="383" y="376"/>
      <point x="325" y="346"/>
      <point x="264" y="346" type="curve" smooth="yes"/>
    </contour>
    <contour>
      <point x="465" y="650" type="move" name="top"/>
    </contour>
    <contour>
      <point x="453" y="-115" type="move" name="bottom"/>
    </contour>
  </outline>
</glyph>
<glyph name="uni092A094D0930094D" format="1">
  <advance width="339"/>
  <outline>
    <contour>
      <point x="416" y="319" type="line"/>
      <point x="361" y="274"/>
      <point x="309" y="249"/>
      <point x="253" y="249" type="curve" smooth="yes"/>
      <point x="221" y="249"/>
      <point x="176" y="258"/>
      <point x="176" y="326" type="curve" smooth="yes"/>
      <point x="176" y="575" type="line"/>
      <point x="370" y="575" type="line"/>
      <point x="370" y="590" type="line"/>
      <point x="339" y="650" type="line"/>
      <point x="-31" y="650" type="line"/>
      <point x="-31" y="634" type="line"/>
      <point x="0" y="575" type="line"/>
      <point x="87" y="575" type="line"/>
      <point x="87" y="343" type="line" smooth="yes"/>
      <point x="87" y="305"/>
      <point x="109" y="272"/>
      <point x="144" y="236" type="curve"/>
      <point x="175" y="208"/>
      <point x="205" y="187"/>
      <point x="238" y="180" type="curve"/>
      <point x="69" y="61" type="line"/>
      <point x="130" y="-7" type="line"/>
      <point x="441" y="242" type="line"/>
    </contour>
  </outline>
</glyph>
<glyph name="uni092A094D0930" format="1">
  <advance width="598"/>
  <outline>
    <contour>
      <point x="-31" y="650" type="line"/>
      <point x="-31" y="634" type="line"/>
      <point x="0" y="575" type="line"/>
      <point x="87" y="575" type="line"/>
      <point x="87" y="342" type="line" smooth="yes"/>
      <point x="87" y="305"/>
      <point x="108" y="271"/>
      <point x="144" y="236" type="curve" smooth="yes"/>
      <point x="180" y="201"/>
      <point x="216" y="177"/>
      <point x="270" y="177" type="curve" smooth="yes"/>
      <point x="326" y="177"/>
      <point x="366" y="194"/>
      <point x="399" y="208" type="curve"/>
      <point x="421" y="208" type="line"/>
      <point x="411" y="316" type="line"/>
      <point x="382" y="287"/>
      <point x="318" y="248"/>
      <point x="254" y="248" type="curve" smooth="yes"/>
      <point x="221" y="248"/>
      <point x="176" y="257"/>
      <point x="176" y="326" type="curve" smooth="yes"/>
      <point x="176" y="575" type="line"/>
      <point x="401" y="575" type="line"/>
      <point x="401" y="244" type="line"/>
      <point x="403" y="228" type="line"/>
      <point x="401" y="-1" type="line"/>
      <point x="473" y="-42" type="line"/>
      <point x="489" y="-42" type="line"/>
      <point x="489" y="575" type="line"/>
      <point x="598" y="575" type="line"/>
      <point x="598" y="590" type="line"/>
      <point x="567" y="650" type="line"/>
    </contour>
    <contour>
      <point x="261" y="196" type="line"/>
      <point x="68" y="61" type="line"/>
      <point x="130" y="-8" type="line"/>
      <point x="408" y="215" type="line"/>
    </contour>
    <contour>
      <point x="445" y="650" type="move" name="top"/>
    </contour>
    <contour>
      <point x="445" y="0" type="move" name="bottom"/>
    </contour>
  </outline>
</glyph>
<glyph name="uni094D0930" format="1">
  <advance width="0"/>
  <outline>
    <contour>
      <point x="-304" y="-111" type="line"/>
      <point x="-160" y="-256" type="line"/>
      <point x="-112" y="-220" type="line"/>
      <point x="-307" y="-31" type="line"/>
      <point x="-556" y="-189" type="line"/>
      <point x="-485" y="-253" type="line"/>
    </contour>
    <contour>
      <point x="-307" y="0" type="move" name="_bottom"/>
    </contour>
  </outline>
</glyph>
<glyph name="uni0930094D0902" format="1">
  <advance width="0"/>
  <outline>
    <contour>
      <point x="-93" y="704" type="line"/>
      <point x="-23" y="775" type="line"/>
      <point x="-94" y="845" type="line"/>
      <point x="-163" y="774" type="line"/>
    </contour>
    <contour>
      <point x="-87" y="909"/>
      <point x="-35" y="883"/>
      <point x="-14" y="866" type="curve"/>
      <point x="13" y="908" type="line"/>
      <point x="-30" y="954"/>
      <point x="-88" y="983"/>
      <point x="-150" y="983" type="curve" smooth="yes"/>
      <point x="-229" y="983"/>
      <point x="-315" y="932"/>
      <point x="-315" y="841" type="curve" smooth="yes"/>
      <point x="-315" y="774"/>
      <point x="-264" y="703"/>
      <point x="-198" y="652" type="curve"/>
      <point x="-198" y="648" type="line"/>
      <point x="-134" y="648" type="line"/>
      <point x="-134" y="650" type="line"/>
      <point x="-174" y="687"/>
      <point x="-222" y="754"/>
      <point x="-222" y="814" type="curve" smooth="yes"/>
      <point x="-222" y="878"/>
      <point x="-181" y="909"/>
      <point x="-133" y="909" type="curve" smooth="yes"/>
    </contour>
    <contour>
      <point x="-153" y="650" type="move" name="_top"/>
    </contour>
  </outline>
</glyph>
<glyph name="uni091F094D0935" format="1">
  <advance width="554"/>
  <outline>
    <contour>
      <point x="-31" y="650" type="line"/>
      <point x="-31" y="634" type="line"/>
      <point x="0" y="575" type="line"/>
      <point x="314" y="575" type="line"/>
      <point x="314" y="501" type="line"/>
      <point x="203" y="497"/>
      <point x="69" y="447"/>
      <point x="69" y="320" type="curve" smooth="yes"/>
      <point x="69" y="224"/>
      <point x="152" y="121"/>
      <point x="302" y="121" type="curve" smooth="yes"/>
      <point x="369" y="121"/>
      <point x="436" y="131"/>
      <point x="529" y="177" type="curve"/>
      <point x="487" y="259" type="line"/>
      <point x="393" y="206"/>
      <point x="322" y="197"/>
      <point x="268" y="197" type="curve" smooth="yes"/>
      <point x="191" y="197"/>
      <point x="123" y="228"/>
      <point x="123" y="291" type="curve" smooth="yes"/>
      <point x="123" y="385"/>
      <point x="259" y="417"/>
      <point x="403" y="419" type="curve"/>
      <point x="403" y="575" type="line"/>
      <point x="554" y="575" type="line"/>
      <point x="554" y="590" type="line"/>
      <point x="522" y="650" type="line"/>
    </contour>
    <contour>
      <point x="175" y="181"/>
      <point x="81" y="107"/>
      <point x="81" y="28" type="curve" smooth="yes"/>
      <point x="81" y="-61"/>
      <point x="142" y="-123"/>
      <point x="240" y="-123" type="curve" smooth="yes"/>
      <point x="335" y="-123"/>
      <point x="404" y="-48"/>
      <point x="441" y="29" type="curve"/>
      <point x="398" y="143" type="line"/>
      <point x="377" y="55"/>
      <point x="305" y="-71"/>
      <point x="217" y="-71" type="curve" smooth="yes"/>
      <point x="178" y="-71"/>
      <point x="159" y="-55"/>
      <point x="159" y="-10" type="curve" smooth="yes"/>
      <point x="159" y="52"/>
      <point x="225" y="121"/>
      <point x="287" y="121" type="curve"/>
      <point x="334" y="121"/>
      <point x="377" y="111"/>
      <point x="424" y="69" type="curve"/>
      <point x="388" y="147" type="line"/>
      <point x="320" y="176"/>
      <point x="271" y="181"/>
      <point x="241" y="181" type="curve"/>
    </contour>
    <contour>
      <point x="388" y="-171" type="line"/>
      <point x="450" y="-205" type="line"/>
      <point x="466" y="-205" type="line"/>
      <point x="466" y="188" type="line"/>
      <point x="388" y="181" type="line"/>
    </contour>
    <contour>
      <point x="358" y="650" type="move" name="top"/>
    </contour>
    <contour>
      <point x="432" y="-167" type="move" name="bottom"/>
    </contour>
  </outline>
</glyph>
<glyph name="uni0920094D0930094D" format="1">
  <advance width="612"/>
  <outline>
    <contour>
      <point x="623" y="-451" type="line"/>
      <point x="490" y="-324"/>
      <point x="344" y="-246"/>
      <point x="275" y="-246" type="curve" smooth="yes"/>
      <point x="232" y="-246"/>
      <point x="204" y="-269"/>
      <point x="204" y="-309" type="curve" smooth="yes"/>
      <point x="204" y="-336"/>
      <point x="221" y="-364"/>
      <point x="240" y="-379" type="curve"/>
      <point x="372" y="-339" type="line"/>
      <point x="446" y="-361"/>
      <point x="505" y="-393"/>
      <point x="596" y="-476" type="curve"/>
    </contour>
    <component base="uni0920094D0930"/>
  </outline>
</glyph>
<glyph name="uni092F.post" format="1">
  <advance width="820"/>
  <outline>
    <contour>
      <point x="-31" y="650" type="line"/>
      <point x="-31" y="634" type="line"/>
      <point x="0" y="575" type="line"/>
      <point x="622" y="575" type="line"/>
      <point x="622" y="229" type="line"/>
      <point x="587" y="187"/>
      <point x="507" y="137"/>
      <point x="427" y="137" type="curve" smooth="yes"/>
      <point x="373" y="137"/>
      <point x="342" y="162"/>
      <point x="320" y="208" type="curve"/>
      <point x="385" y="234"/>
      <point x="449" y="264"/>
      <point x="449" y="317" type="curve" smooth="yes"/>
      <point x="449" y="381"/>
      <point x="344" y="471"/>
      <point x="259" y="471" type="curve" smooth="yes"/>
      <point x="92" y="471" type="line"/>
      <point x="92" y="391" type="line"/>
      <point x="309" y="391" type="line" smooth="yes"/>
      <point x="360" y="391"/>
      <point x="376" y="372"/>
      <point x="376" y="346" type="curve" smooth="yes"/>
      <point x="376" y="310"/>
      <point x="303" y="278"/>
      <point x="234" y="260" type="curve"/>
      <point x="276" y="148"/>
      <point x="357" y="58"/>
      <point x="468" y="58" type="curve" smooth="yes"/>
      <point x="527" y="58"/>
      <point x="581" y="86"/>
      <point x="619" y="113" type="curve"/>
      <point x="624" y="110" type="line"/>
      <point x="621" y="0" type="line"/>
      <point x="695" y="-42" type="line"/>
      <point x="711" y="-42" type="line"/>
      <point x="711" y="575" type="line"/>
      <point x="820" y="575" type="line"/>
      <point x="820" y="590" type="line"/>
      <point x="789" y="650" type="line"/>
    </contour>
    <contour>
      <point x="666" y="650" type="move" name="top"/>
    </contour>
    <contour>
      <point x="666" y="0" type="move" name="bottom"/>
    </contour>
  </outline>
</glyph>
